SplineFontDB: 3.2
FontName: Auraboo-Regular
FullName: Auraboo
FamilyName: Auraboo
Weight: Regular
Copyright: 
Version: Version 1.002;Fontself Maker 3.5.1
ItalicAngle: 0
UnderlinePosition: 0
UnderlineWidth: 0
Ascent: 800
Descent: 200
InvalidEm: 0
sfntRevision: 0x00010000
LayerCount: 2
Layer: 0 0 "Back" 1
Layer: 1 0 "Fore" 0
XUID: [1021 178 1911899458 32702]
StyleMap: 0x0040
FSType: 0
OS2Version: 4
OS2_WeightWidthSlopeOnly: 0
OS2_UseTypoMetrics: 0
CreationTime: 1590021924
ModificationTime: 1590082455
PfmFamily: 81
TTFWeight: 400
TTFWidth: 5
LineGap: 0
VLineGap: 0
Panose: 0 0 0 0 0 0 0 0 0 0
OS2TypoAscent: 752
OS2TypoAOffset: 0
OS2TypoDescent: -200
OS2TypoDOffset: 0
OS2TypoLinegap: 0
OS2WinAscent: 825
OS2WinAOffset: 0
OS2WinDescent: 2
OS2WinDOffset: 0
HheadAscent: 752
HheadAOffset: 0
HheadDescent: -200
HheadDOffset: 0
OS2SubXSize: 650
OS2SubYSize: 699
OS2SubXOff: 0
OS2SubYOff: 140
OS2SupXSize: 650
OS2SupYSize: 699
OS2SupXOff: 0
OS2SupYOff: 479
OS2StrikeYSize: 49
OS2StrikeYPos: 258
OS2CapHeight: 700
OS2XHeight: 697
OS2Vendor: 'XXXX'
OS2CodePages: 00000003.00000000
OS2UnicodeRanges: 80000007.00000000.00000000.00000000
Lookup: 258 0 0 "'kern' Horizontal Kerning in Latin lookup 0" { "'kern' Horizontal Kerning in Latin lookup 0 subtable"  } ['kern' ('DFLT' <'dflt' > 'latn' <'dflt' > ) ]
MarkAttachClasses: 1
DEI: 91125
KernClass2: 22 24 "'kern' Horizontal Kerning in Latin lookup 0 subtable"
 3 A a
 3 B b
 3 C c
 7 D G d g
 3 E e
 3 F f
 3 H h
 19 I L P S U i l p s u
 3 J j
 3 K k
 3 M m
 3 O o
 3 Q q
 3 R r
 3 T t
 3 V v
 3 W w
 3 X x
 3 Y y
 3 Z z
 3 N n
 3 A a
 3 B b
 3 C c
 3 D d
 7 E G e g
 3 F f
 3 H h
 3 I i
 3 J j
 3 K k
 3 L l
 3 M m
 3 O o
 7 P U p u
 3 R r
 3 S s
 3 T t
 3 V v
 3 W w
 3 X x
 3 Y y
 3 Z z
 7 N Q n q

StartChar: .notdef
Encoding: 65536 -1 0
Width: 527
Flags: W
LayerCount: 2
Fore
SplineSet
50 700 m 1
 477 700 l 1
 477 0 l 1
 50 0 l 1
 50 700 l 1
78 680 m 1
 263 371 l 1
 449 680 l 1
 78 680 l 1
251 350 m 1
 71 650 l 1
 71 49 l 1
 251 350 l 1
264 329 m 1
 79 21 l 1
 449 21 l 1
 264 329 l 1
276 350 m 1
 457 47 l 1
 457 652 l 1
 276 350 l 1
EndSplineSet
Validated: 1
EndChar

StartChar: exclam
Encoding: 33 33 5
Width: 310
Flags: W
LayerCount: 2
Fore
SplineSet
237.759765625 747.126953125 m 2
 245.873046875 755.469726562 260.006835938 749.744140625 260.006835938 738.096679688 c 2
 260.006835938 678.16015625 l 2
 260.006835938 639.129882812 244.793945312 601.63671875 217.57421875 573.631835938 c 2
 72.248046875 424.150390625 l 2
 64.134765625 415.807617188 50.0009765625 421.533203125 50.0009765625 433.180664062 c 2
 50.0009765625 493.1171875 l 2
 50.0009765625 532.147460938 65.2138671875 569.640625 92.43359375 597.645507812 c 2
 237.759765625 747.126953125 l 2
237.759765625 497.92578125 m 2
 245.873046875 506.268554688 260.006835938 500.54296875 260.006835938 488.928710938 c 2
 260.006835938 428.9921875 l 2
 260.006835938 389.961914062 244.793945312 352.46875 217.57421875 324.463867188 c 2
 72.248046875 174.950195312 l 2
 64.134765625 166.607421875 50.0009765625 172.365234375 50.0009765625 183.979492188 c 2
 50.0009765625 243.916015625 l 2
 50.0009765625 282.946289062 65.2138671875 320.439453125 92.43359375 348.444335938 c 2
 237.759765625 497.92578125 l 2
EndSplineSet
Validated: 524289
EndChar

StartChar: numbersign
Encoding: 35 35 6
Width: 803
Flags: W
LayerCount: 2
Fore
SplineSet
753.370117188 643.07421875 m 0
 753.337890625 609.801757812 726.345703125 582.809570312 693.073242188 582.809570312 c 2
 683.029296875 582.809570312 l 2
 655.286132812 582.809570312 632.77734375 560.333007812 632.77734375 532.556640625 c 2
 632.77734375 498.106445312 l 2
 632.77734375 450.864257812 616.38671875 405.09375 586.385742188 368.615234375 c 2
 564.694335938 342.212890625 l 2
 530.767578125 300.924804688 512.217773438 249.134765625 512.217773438 195.67578125 c 2
 512.217773438 170.84375 l 2
 512.217773438 143.100585938 534.694335938 120.591796875 562.470703125 120.591796875 c 2
 572.514648438 120.591796875 l 2
 605.8203125 120.591796875 632.811523438 93.6005859375 632.811523438 60.294921875 c 0
 632.811523438 26.9892578125 605.8203125 -0.001953125 572.514648438 -0.001953125 c 2
 110.296875 -0.001953125 l 2
 76.9912109375 0.0302734375 50 27.021484375 50 60.2939453125 c 0
 50 93.599609375 76.9912109375 120.590820312 110.296875 120.590820312 c 2
 120.340820312 120.590820312 l 2
 148.083984375 120.590820312 170.592773438 143.067382812 170.592773438 170.84375 c 2
 170.592773438 205.948242188 l 2
 170.592773438 252.765625 186.852539062 298.143554688 216.55859375 334.328125 c 2
 242.4375 365.801757812 l 2
 273.943359375 404.145507812 291.15234375 452.206054688 291.15234375 501.836914062 c 2
 291.15234375 532.590820312 l 2
 291.15234375 560.333984375 268.67578125 582.842773438 240.899414062 582.842773438 c 2
 230.85546875 582.842773438 l 2
 197.549804688 582.842773438 170.55859375 609.833984375 170.55859375 643.139648438 c 0
 170.55859375 676.379882812 197.549804688 703.37109375 230.85546875 703.37109375 c 2
 693.073242188 703.37109375 l 2
 726.37890625 703.37109375 753.370117188 676.379882812 753.370117188 643.07421875 c 0
512.216796875 532.58984375 m 2
 512.216796875 560.30078125 489.70703125 582.807617188 461.963867188 582.807617188 c 0
 434.220703125 582.807617188 411.711914062 560.331054688 411.711914062 532.5546875 c 2
 411.711914062 498.104492188 l 2
 411.711914062 450.862304688 395.321289062 405.091796875 365.3203125 368.61328125 c 2
 343.62890625 342.2109375 l 2
 309.702148438 300.922851562 291.15234375 249.1328125 291.15234375 195.673828125 c 2
 291.15234375 170.841796875 l 2
 291.15234375 143.098632812 313.62890625 120.58984375 341.405273438 120.58984375 c 0
 369.1484375 120.58984375 391.657226562 143.06640625 391.657226562 170.842773438 c 2
 391.657226562 205.947265625 l 2
 391.657226562 252.764648438 407.916992188 298.142578125 437.623046875 334.327148438 c 2
 463.501953125 365.80078125 l 2
 495.0078125 404.14453125 512.216796875 452.205078125 512.216796875 501.8359375 c 2
 512.216796875 532.58984375 l 2
EndSplineSet
Validated: 524289
EndChar

StartChar: dollar
Encoding: 36 36 7
Width: 786
Flags: W
LayerCount: 2
Fore
SplineSet
721.079101562 444.713867188 m 2
 430.458984375 64.08984375 l 2
 399.672851562 23.685546875 351.776367188 -0.0009765625 300.967773438 -0.0009765625 c 2
 249.701171875 -0.0009765625 l 2
 220.158203125 -0.0009765625 203.407226562 33.828125 221.302734375 57.318359375 c 2
 445.57421875 351.504882812 l 2
 462.586914062 373.817382812 446.686523438 405.912109375 418.616210938 405.912109375 c 2
 364.69921875 405.912109375 l 2
 358.483398438 405.912109375 353.4453125 400.874023438 353.4453125 394.658203125 c 2
 353.4453125 304.58984375 l 2
 353.4453125 282.866210938 335.84375 265.264648438 314.120117188 265.264648438 c 2
 313.400390625 265.264648438 l 2
 291.676757812 265.264648438 274.075195312 282.866210938 274.075195312 304.58984375 c 2
 274.075195312 374.275390625 l 2
 274.075195312 391.74609375 259.909179688 405.912109375 242.438476562 405.912109375 c 0
 224.967773438 405.912109375 210.801757812 391.74609375 210.801757812 374.275390625 c 2
 210.801757812 304.58984375 l 2
 210.801757812 282.866210938 193.200195312 265.264648438 171.4765625 265.264648438 c 2
 170.723632812 265.264648438 l 2
 149 265.264648438 131.3984375 282.866210938 131.3984375 304.58984375 c 2
 131.3984375 387.951171875 l 2
 131.3984375 397.864257812 123.350585938 405.912109375 113.4375 405.912109375 c 0
 78.3984375 405.912109375 50.0009765625 434.309570312 50.0009765625 469.31640625 c 2
 50.0009765625 498.368164062 l 2
 50.0009765625 532.752929688 77.875 560.66015625 112.29296875 560.66015625 c 0
 122.860351562 560.66015625 131.399414062 569.19921875 131.399414062 579.766601562 c 2
 131.399414062 664.01171875 l 2
 131.399414062 685.735351562 149.000976562 703.336914062 170.724609375 703.336914062 c 2
 171.444335938 703.336914062 l 2
 193.16796875 703.336914062 210.76953125 685.735351562 210.76953125 664.01171875 c 2
 210.76953125 592.296875 l 2
 210.76953125 574.826171875 224.935546875 560.66015625 242.40625 560.66015625 c 0
 259.876953125 560.66015625 274.04296875 574.826171875 274.04296875 592.296875 c 2
 274.04296875 664.01171875 l 2
 274.075195312 685.735351562 291.676757812 703.336914062 313.400390625 703.336914062 c 2
 314.120117188 703.336914062 l 2
 335.84375 703.336914062 353.4453125 685.735351562 353.4453125 664.01171875 c 2
 353.4453125 571.915039062 l 2
 353.4453125 565.69921875 358.483398438 560.661132812 364.69921875 560.661132812 c 2
 663.727539062 560.661132812 l 2
 723.467773438 560.661132812 757.329101562 492.185546875 721.079101562 444.713867188 c 2
EndSplineSet
Validated: 524321
EndChar

StartChar: percent
Encoding: 37 37 8
Width: 1015
Flags: W
LayerCount: 2
Fore
SplineSet
326.323242188 703.337890625 m 2
 367.938476562 703.337890625 401.669921875 669.606445312 401.703125 627.991210938 c 2
 401.703125 483.384765625 l 2
 401.703125 463.395507812 393.752929688 444.223632812 379.619140625 430.08984375 c 2
 323.28125 373.751953125 l 2
 309.147460938 359.618164062 289.975585938 351.66796875 269.986328125 351.66796875 c 2
 125.346679688 351.66796875 l 2
 83.7314453125 351.66796875 50.0009765625 385.3984375 50.0009765625 427.013671875 c 2
 50.0009765625 531.8046875 l 2
 50.0009765625 577.313476562 68.0927734375 620.891601562 100.252929688 653.084960938 c 0
 132.413085938 685.278320312 176.056640625 703.337890625 221.532226562 703.337890625 c 2
 326.323242188 703.337890625 l 2
225.852539062 452.140625 m 0
 267.467773438 452.140625 301.165039062 485.87109375 301.165039062 527.486328125 c 0
 301.165039062 569.1015625 267.434570312 602.83203125 225.819335938 602.83203125 c 0
 184.204101562 602.83203125 150.473632812 569.1015625 150.473632812 527.486328125 c 0
 150.473632812 485.87109375 184.204101562 452.140625 225.852539062 452.140625 c 0
638.143554688 587.946289062 m 2
 638.176757812 482.599609375 601.631835938 380.5234375 534.759765625 299.157226562 c 0
 523.668945312 285.677734375 517.616210938 268.763671875 517.616210938 251.326171875 c 2
 517.616210938 75.3447265625 l 2
 517.616210938 33.7294921875 483.885742188 -0.0009765625 442.270507812 -0.0009765625 c 2
 432.2265625 -0.0009765625 l 2
 390.611328125 -0.0009765625 356.880859375 33.7294921875 356.880859375 75.3447265625 c 2
 356.880859375 115.389648438 l 2
 356.880859375 220.704101562 393.424804688 322.779296875 460.330078125 404.145507812 c 0
 471.420898438 417.625 477.473632812 434.5390625 477.473632812 451.9765625 c 2
 477.473632812 627.991210938 l 2
 477.408203125 669.606445312 511.138671875 703.336914062 552.75390625 703.336914062 c 2
 562.797851562 703.336914062 l 2
 604.413085938 703.336914062 638.143554688 669.606445312 638.143554688 627.991210938 c 2
 638.143554688 587.946289062 l 2
889.372070312 351.666992188 m 2
 930.987304688 351.666992188 964.749023438 317.903320312 964.68359375 276.288085938 c 2
 964.68359375 171.530273438 l 2
 964.68359375 126.021484375 946.591796875 82.3779296875 914.431640625 50.2177734375 c 0
 882.271484375 18.0576171875 838.627929688 -0.001953125 793.15234375 -0.001953125 c 2
 688.361328125 -0.001953125 l 2
 646.74609375 -0.001953125 613.015625 33.728515625 613.015625 75.34375 c 2
 613.015625 219.950195312 l 2
 613.015625 239.939453125 620.965820312 259.111328125 635.099609375 273.245117188 c 2
 691.4375 329.583007812 l 2
 705.571289062 343.716796875 724.743164062 351.666992188 744.732421875 351.666992188 c 2
 889.372070312 351.666992188 l 2
788.8984375 100.470703125 m 0
 830.513671875 100.470703125 864.244140625 134.201171875 864.244140625 175.81640625 c 0
 864.244140625 217.431640625 830.513671875 251.162109375 788.8984375 251.162109375 c 0
 747.283203125 251.162109375 713.552734375 217.431640625 713.552734375 175.81640625 c 0
 713.552734375 134.201171875 747.283203125 100.470703125 788.8984375 100.470703125 c 0
EndSplineSet
Validated: 524321
EndChar

StartChar: ampersand
Encoding: 38 38 9
Width: 945
Flags: W
LayerCount: 2
Fore
SplineSet
895.490234375 155.56640625 m 2
 895.490234375 69.6533203125 825.8359375 -0.001953125 739.922851562 -0.001953125 c 2
 125.475585938 -0.001953125 l 2
 105.453125 -0.001953125 86.2490234375 7.9482421875 72.115234375 22.1142578125 c 0
 57.94921875 36.248046875 49.9990234375 55.4521484375 49.9990234375 75.474609375 c 2
 49.9990234375 226.068359375 l 2
 49.9990234375 256.592773438 74.732421875 281.326171875 105.256835938 281.326171875 c 2
 153.48046875 281.326171875 l 2
 189.56640625 281.326171875 218.782226562 252.078125 218.782226562 216.024414062 c 0
 218.782226562 185.5 243.515625 160.766601562 274.040039062 160.766601562 c 2
 671.4140625 160.766601562 l 2
 701.938476562 160.766601562 726.671875 185.5 726.671875 216.024414062 c 0
 726.671875 246.548828125 701.938476562 271.282226562 671.4140625 271.282226562 c 2
 407.163085938 271.282226562 l 2
 362.766601562 271.282226562 326.778320312 307.270507812 326.778320312 351.666992188 c 0
 326.778320312 396.063476562 362.766601562 432.051757812 407.163085938 432.051757812 c 2
 671.4140625 432.051757812 l 2
 701.938476562 432.051757812 726.671875 456.78515625 726.671875 487.309570312 c 0
 726.671875 517.833984375 701.938476562 542.567382812 671.4140625 542.567382812 c 2
 274.073242188 542.567382812 l 2
 243.548828125 542.567382812 218.815429688 517.833984375 218.815429688 487.309570312 c 0
 218.815429688 451.223632812 189.567382812 421.975585938 153.481445312 421.975585938 c 2
 105.2578125 421.975585938 l 2
 74.7333984375 421.975585938 50 446.7421875 50 477.234375 c 2
 50 627.860351562 l 2
 50 647.8828125 57.9501953125 667.086914062 72.1162109375 681.220703125 c 0
 86.25 695.38671875 105.454101562 703.336914062 125.4765625 703.336914062 c 2
 739.923828125 703.336914062 l 2
 825.836914062 703.336914062 895.490234375 633.68359375 895.490234375 547.770507812 c 2
 895.490234375 155.56640625 l 2
EndSplineSet
Validated: 524289
EndChar

StartChar: parenleft
Encoding: 40 40 10
Width: 386
Flags: W
LayerCount: 2
Fore
SplineSet
268.545898438 703.337890625 m 2
 306.005859375 703.337890625 336.3671875 672.9765625 336.3671875 635.516601562 c 2
 336.3671875 67.8212890625 l 2
 336.3671875 30.361328125 306.005859375 0 268.545898438 0 c 2
 253.463867188 0 l 2
 216.00390625 0 185.642578125 30.361328125 185.642578125 67.8212890625 c 2
 185.642578125 206.473632812 l 2
 185.642578125 243.93359375 155.28125 274.294921875 117.821289062 274.294921875 c 0
 80.361328125 274.294921875 50 304.655273438 50 342.115234375 c 2
 50 361.221679688 l 2
 50 398.681640625 80.361328125 429.04296875 117.821289062 429.04296875 c 0
 155.28125 429.04296875 185.642578125 459.404296875 185.642578125 496.864257812 c 2
 185.642578125 635.516601562 l 2
 185.642578125 672.9765625 216.00390625 703.337890625 253.463867188 703.337890625 c 2
 268.545898438 703.337890625 l 2
EndSplineSet
Validated: 524289
EndChar

StartChar: parenright
Encoding: 41 41 11
Width: 386
Flags: W
LayerCount: 2
Fore
SplineSet
336.3671875 342.115234375 m 2
 336.3671875 304.655273438 306.004882812 274.294921875 268.544921875 274.294921875 c 0
 231.084960938 274.294921875 200.69140625 243.93359375 200.69140625 206.473632812 c 2
 200.69140625 67.8212890625 l 2
 200.69140625 30.361328125 170.331054688 0 132.87109375 0 c 2
 117.821289062 0 l 2
 80.361328125 0 50 30.361328125 50 67.8212890625 c 2
 50 635.516601562 l 2
 50 672.9765625 80.361328125 703.337890625 117.821289062 703.337890625 c 2
 132.903320312 703.337890625 l 2
 170.36328125 703.337890625 200.724609375 672.9765625 200.724609375 635.516601562 c 2
 200.724609375 496.864257812 l 2
 200.724609375 459.404296875 231.0859375 429.04296875 268.545898438 429.04296875 c 0
 306.005859375 429.04296875 336.3671875 398.681640625 336.3671875 361.221679688 c 2
 336.3671875 342.115234375 l 2
EndSplineSet
Validated: 524289
EndChar

StartChar: asterisk
Encoding: 42 42 12
Width: 520
Flags: W
LayerCount: 2
Fore
SplineSet
419.793945312 666.633789062 m 0
 447.504882812 666.633789062 470.015625 644.155273438 470.015625 616.37890625 c 2
 470.015625 439.546875 l 2
 470.015625 411.803710938 447.5390625 389.294921875 419.762695312 389.294921875 c 0
 392.01953125 389.294921875 369.510742188 411.771484375 369.510742188 439.547851562 c 2
 369.510742188 448.086914062 l 2
 369.510742188 464.4453125 356.227539062 477.728515625 339.869140625 477.728515625 c 0
 323.510742188 477.728515625 310.227539062 464.4453125 310.227539062 448.086914062 c 2
 310.227539062 379.251953125 l 2
 310.227539062 351.508789062 287.750976562 329 259.974609375 329 c 0
 232.231445312 329 209.72265625 351.4765625 209.72265625 379.252929688 c 2
 209.72265625 448.087890625 l 2
 209.72265625 464.446289062 196.439453125 477.729492188 180.081054688 477.729492188 c 0
 163.72265625 477.729492188 150.439453125 464.446289062 150.439453125 448.087890625 c 2
 150.439453125 439.548828125 l 2
 150.439453125 411.805664062 127.962890625 389.296875 100.186523438 389.296875 c 0
 72.4755859375 389.330078125 49.9990234375 411.806640625 49.9990234375 439.549804688 c 2
 49.9990234375 616.381835938 l 2
 49.9990234375 644.158203125 72.4755859375 666.634765625 100.251953125 666.634765625 c 0
 127.995117188 666.634765625 150.50390625 644.158203125 150.50390625 616.381835938 c 2
 150.50390625 607.842773438 l 2
 150.50390625 591.484375 163.787109375 578.201171875 180.145507812 578.201171875 c 0
 196.50390625 578.201171875 209.787109375 591.484375 209.787109375 607.842773438 c 2
 209.787109375 676.677734375 l 2
 209.75390625 704.454101562 232.262695312 726.930664062 260.005859375 726.930664062 c 0
 287.749023438 726.930664062 310.2578125 704.454101562 310.2578125 676.677734375 c 2
 310.2578125 607.842773438 l 2
 310.2578125 591.484375 323.541015625 578.201171875 339.899414062 578.201171875 c 0
 356.2578125 578.201171875 369.541015625 591.484375 369.541015625 607.842773438 c 2
 369.541015625 616.381835938 l 2
 369.541015625 644.125 392.017578125 666.633789062 419.793945312 666.633789062 c 0
EndSplineSet
Validated: 524321
EndChar

StartChar: plus
Encoding: 43 43 13
Width: 381
Flags: W
LayerCount: 2
Fore
SplineSet
331.295898438 657.944335938 m 0
 331.328125 635.729492188 313.334960938 617.768554688 291.120117188 617.768554688 c 0
 268.938476562 617.768554688 250.944335938 599.774414062 250.944335938 577.592773438 c 2
 250.944335938 517.296875 l 2
 250.944335938 483.991210938 223.953125 457 190.647460938 457 c 0
 157.341796875 457 130.350585938 483.991210938 130.350585938 517.296875 c 2
 130.350585938 577.560546875 l 2
 130.350585938 599.7421875 112.356445312 617.736328125 90.1748046875 617.736328125 c 0
 67.9931640625 617.768554688 49.9990234375 635.729492188 49.9990234375 657.944335938 c 0
 49.9990234375 702.340820312 85.9873046875 738.329101562 130.383789062 738.329101562 c 2
 250.911132812 738.329101562 l 2
 295.307617188 738.329101562 331.295898438 702.340820312 331.295898438 657.944335938 c 0
EndSplineSet
Validated: 524321
EndChar

StartChar: comma
Encoding: 44 44 14
Width: 261
Flags: W
LayerCount: 2
Fore
SplineSet
178.150390625 351.635742188 m 0
 196.176757812 351.635742188 210.80078125 337.01171875 210.80078125 319.017578125 c 2
 210.80078125 128.150390625 l 2
 210.80078125 57.384765625 153.416015625 0 82.650390625 -0 c 0
 64.6240234375 -0.033203125 50 14.5908203125 50 32.5849609375 c 2
 50 223.485351562 l 2
 50 294.250976562 107.384765625 351.635742188 178.150390625 351.635742188 c 0
EndSplineSet
Validated: 524321
EndChar

StartChar: hyphen
Encoding: 45 45 15
Width: 510
Flags: W
LayerCount: 2
Fore
SplineSet
459.936523438 715.524414062 m 0
 459.96875 644.005859375 401.99609375 585.999023438 330.477539062 585.999023438 c 2
 75.2236328125 585.999023438 l 2
 61.2861328125 585.999023438 49.9990234375 597.319335938 49.9990234375 611.256835938 c 0
 49.9990234375 682.775390625 107.97265625 740.749023438 179.491210938 740.749023438 c 2
 434.711914062 740.749023438 l 2
 448.649414062 740.749023438 459.936523438 729.461914062 459.936523438 715.524414062 c 0
EndSplineSet
Validated: 524321
EndChar

StartChar: period
Encoding: 46 46 16
Width: 481
Flags: W
LayerCount: 2
Fore
SplineSet
68.4521484375 351.635742188 m 0
 147.037109375 351.635742188 210.768554688 287.936523438 210.768554688 209.3515625 c 2
 210.768554688 18.451171875 l 2
 210.768554688 8.244140625 202.491210938 0 192.31640625 -0 c 0
 113.69921875 -0.033203125 50 63.666015625 50 142.250976562 c 2
 50 333.18359375 l 2
 50 343.358398438 58.27734375 351.635742188 68.4521484375 351.635742188 c 0
288.502929688 351.635742188 m 0
 367.087890625 351.635742188 430.787109375 287.936523438 430.787109375 209.3515625 c 2
 430.787109375 18.451171875 l 2
 430.787109375 8.2431640625 422.509765625 -0.0009765625 412.334960938 -0.0009765625 c 0
 333.75 -0.0009765625 270.05078125 63.6982421875 270.05078125 142.283203125 c 2
 270.05078125 333.18359375 l 2
 270.05078125 343.358398438 278.328125 351.635742188 288.502929688 351.635742188 c 0
EndSplineSet
Validated: 524321
EndChar

StartChar: slash
Encoding: 47 47 17
Width: 381
Flags: W
LayerCount: 2
Fore
SplineSet
250.9765625 703.370117188 m 0
 295.373046875 703.370117188 331.361328125 667.381835938 331.361328125 622.985351562 c 2
 331.361328125 556.11328125 l 2
 331.361328125 471.377929688 301.94921875 389.259765625 248.163085938 323.793945312 c 0
 224.018554688 294.415039062 210.833984375 257.576171875 210.833984375 219.52734375 c 2
 210.833984375 80.384765625 l 2
 210.833984375 35.98828125 174.845703125 0 130.44921875 0 c 2
 130.383789062 -0 l 2
 85.9873046875 0.0322265625 49.9990234375 35.9873046875 49.9990234375 80.3837890625 c 2
 49.9990234375 147.255859375 l 2
 49.9990234375 232.024414062 79.4111328125 314.142578125 133.229492188 379.608398438 c 0
 157.374023438 408.987304688 170.591796875 445.858398438 170.591796875 483.875 c 2
 170.591796875 622.985351562 l 2
 170.591796875 667.381835938 206.580078125 703.370117188 250.9765625 703.370117188 c 0
EndSplineSet
Validated: 524289
EndChar

StartChar: zero
Encoding: 48 48 18
Width: 800
Flags: W
LayerCount: 2
Fore
SplineSet
749.935546875 71.8125 m 2
 749.935546875 32.16015625 717.775390625 0 678.123046875 0 c 2
 121.813476562 0 l 2
 82.1611328125 -0 50.0009765625 32.16015625 50.0009765625 71.8125 c 2
 50.0009765625 628.1875 l 2
 50.0009765625 667.83984375 82.1611328125 700 121.813476562 700 c 2
 678.123046875 700 l 2
 717.775390625 700 749.935546875 667.83984375 749.935546875 628.1875 c 2
 749.935546875 71.8125 l 2
589.919921875 468.205078125 m 2
 589.919921875 507.857421875 557.791992188 540.017578125 518.107421875 540.017578125 c 2
 281.796875 540.017578125 l 2
 242.14453125 540.017578125 209.984375 507.857421875 209.984375 468.205078125 c 2
 209.984375 231.795898438 l 2
 209.984375 192.143554688 242.14453125 159.983398438 281.796875 159.983398438 c 2
 518.107421875 159.983398438 l 2
 557.759765625 159.983398438 589.919921875 192.143554688 589.919921875 231.795898438 c 2
 589.919921875 468.205078125 l 2
391.822265625 270.008789062 m 2
 352.169921875 270.008789062 320.009765625 302.168945312 320.009765625 341.821289062 c 2
 320.009765625 358.1796875 l 2
 320.009765625 397.83203125 352.169921875 429.9921875 391.822265625 429.9921875 c 2
 408.180664062 429.9921875 l 2
 447.833007812 429.9921875 479.993164062 397.83203125 479.993164062 358.1796875 c 2
 479.993164062 341.821289062 l 2
 479.993164062 302.168945312 447.833007812 270.008789062 408.180664062 270.008789062 c 2
 391.822265625 270.008789062 l 2
EndSplineSet
Validated: 524289
EndChar

StartChar: one
Encoding: 49 49 19
Width: 773
Flags: W
LayerCount: 2
Fore
SplineSet
651.1640625 160.015625 m 2
 690.848632812 159.982421875 722.9765625 127.854492188 722.9765625 88.2353515625 c 2
 722.9765625 71.779296875 l 2
 722.9765625 32.16015625 690.848632812 0.0322265625 651.229492188 0.0322265625 c 2
 121.747070312 0.0322265625 l 2
 82.1279296875 0.0322265625 50 32.16015625 50 71.779296875 c 2
 50 88.2353515625 l 2
 50 127.854492188 82.1279296875 159.982421875 121.747070312 159.982421875 c 2
 230.168945312 159.982421875 l 2
 269.788085938 159.982421875 301.916015625 192.110351562 301.916015625 231.729492188 c 2
 301.916015625 468.26953125 l 2
 301.916015625 507.888671875 269.788085938 540.016601562 230.168945312 540.016601562 c 2
 121.747070312 540.016601562 l 2
 82.1279296875 540.016601562 50 572.14453125 50 611.763671875 c 2
 50 628.252929688 l 2
 49.966796875 667.872070312 82.0947265625 700 121.747070312 700 c 2
 398.201171875 700 l 2
 437.8203125 700 469.948242188 667.872070312 469.948242188 628.252929688 c 2
 469.948242188 231.762695312 l 2
 469.948242188 192.143554688 502.076171875 160.015625 541.6953125 160.015625 c 2
 651.1640625 160.015625 l 2
EndSplineSet
Validated: 524321
EndChar

StartChar: two
Encoding: 50 50 20
Width: 760
Flags: W
LayerCount: 2
Fore
SplineSet
533.745117188 700.000976562 m 2
 631.076171875 700.000976562 709.989257812 621.088867188 709.989257812 523.7578125 c 2
 709.989257812 446.28515625 l 2
 709.989257812 348.954101562 631.077148438 270.041992188 533.74609375 270.041992188 c 2
 118.247070312 270.041992188 l 2
 80.5576171875 270.041992188 50 300.599609375 50 338.255859375 c 2
 50 361.779296875 l 2
 50 399.46875 80.5576171875 429.993164062 118.247070312 429.993164062 c 2
 486.928710938 429.993164062 l 2
 517.322265625 429.993164062 541.924804688 454.62890625 541.924804688 484.989257812 c 0
 541.924804688 515.3828125 517.2890625 539.985351562 486.928710938 539.985351562 c 2
 121.453125 539.985351562 l 2
 81.9970703125 539.985351562 50.033203125 571.94921875 50.033203125 611.405273438 c 2
 50.033203125 628.581054688 l 2
 50.033203125 668.037109375 81.9970703125 700.000976562 121.453125 700.000976562 c 2
 533.745117188 700.000976562 l 2
50.0341796875 88.400390625 m 2
 50.0341796875 127.921875 82.064453125 159.984375 121.618164062 159.984375 c 2
 638.439453125 159.984375 l 2
 677.9609375 159.984375 710.0234375 127.921875 710.0234375 88.400390625 c 2
 710.0234375 71.583984375 l 2
 710.0234375 32.0625 677.9609375 0 638.439453125 0 c 2
 121.618164062 0 l 2
 82.0966796875 0 50.0341796875 32.0625 50.0341796875 71.583984375 c 2
 50.0341796875 88.400390625 l 2
EndSplineSet
Validated: 524289
EndChar

StartChar: three
Encoding: 51 51 21
Width: 801
Flags: W
LayerCount: 2
Fore
SplineSet
750.94921875 229.767578125 m 2
 750.94921875 102.860351562 648.088867188 0.0009765625 521.181640625 0.0009765625 c 2
 119.784179688 0.0009765625 l 2
 81.244140625 0.0009765625 50 31.2451171875 50 69.78515625 c 2
 50 90.1669921875 l 2
 50 128.70703125 81.244140625 159.951171875 119.784179688 159.951171875 c 2
 450.318359375 159.951171875 l 2
 523.538085938 159.951171875 582.91796875 219.331054688 582.91796875 292.55078125 c 2
 582.91796875 407.385742188 l 2
 582.91796875 480.60546875 523.538085938 539.985351562 450.318359375 539.985351562 c 2
 119.784179688 539.985351562 l 2
 81.244140625 539.985351562 50 571.229492188 50 609.76953125 c 2
 50 630.216796875 l 2
 49.966796875 668.756835938 81.244140625 700.000976562 119.784179688 700.000976562 c 2
 521.181640625 700.000976562 l 2
 648.088867188 700.000976562 750.94921875 597.140625 750.94921875 470.233398438 c 2
 750.94921875 229.767578125 l 2
472.958007812 339.793945312 m 2
 472.990234375 301.25390625 441.713867188 270.008789062 403.173828125 270.008789062 c 2
 119.784179688 270.008789062 l 2
 81.244140625 270.008789062 50 301.252929688 50 339.79296875 c 2
 50 360.17578125 l 2
 50 398.715820312 81.244140625 429.959960938 119.784179688 429.959960938 c 2
 403.173828125 429.959960938 l 2
 441.713867188 429.959960938 472.958007812 398.715820312 472.958007812 360.17578125 c 2
 472.958007812 339.793945312 l 2
EndSplineSet
Validated: 524321
EndChar

StartChar: four
Encoding: 52 52 22
Width: 813
Flags: W
LayerCount: 2
Fore
SplineSet
691.831054688 700.000976562 m 2
 731.123046875 700.000976562 762.986328125 668.135742188 762.986328125 628.810546875 c 2
 762.986328125 71.19140625 l 2
 762.986328125 31.8662109375 731.120117188 0 691.794921875 0 c 2
 666.177734375 0 l 2
 626.852539062 0 594.986328125 31.8662109375 594.986328125 71.19140625 c 2
 594.986328125 238.994140625 l 2
 594.986328125 256.137695312 581.08203125 270.009765625 563.971679688 270.009765625 c 2
 231.376953125 270.009765625 l 2
 131.19921875 270.009765625 49.9970703125 351.211914062 49.9970703125 451.389648438 c 2
 49.9970703125 628.810546875 l 2
 49.9970703125 668.135742188 81.86328125 700.001953125 121.188476562 700.001953125 c 2
 146.805664062 700.001953125 l 2
 186.130859375 700.001953125 217.997070312 668.135742188 217.997070312 628.810546875 c 2
 217.997070312 501.151367188 l 2
 217.997070312 461.826171875 249.86328125 429.959960938 289.188476562 429.959960938 c 2
 564.006835938 429.959960938 l 2
 581.150390625 429.959960938 595.022460938 443.864257812 595.022460938 460.974609375 c 2
 595.022460938 628.809570312 l 2
 595.022460938 668.134765625 626.888671875 700.000976562 666.213867188 700.000976562 c 2
 691.831054688 700.000976562 l 2
EndSplineSet
Validated: 524289
EndChar

StartChar: five
Encoding: 53 53 23
Width: 760
Flags: W
LayerCount: 2
Fore
SplineSet
638.69921875 700.000976562 m 2
 678.056640625 700.000976562 709.98828125 668.102539062 709.98828125 628.711914062 c 2
 709.98828125 611.274414062 l 2
 709.98828125 571.916992188 678.08984375 539.985351562 638.69921875 539.985351562 c 2
 121.2890625 539.985351562 l 2
 81.931640625 539.985351562 50 571.883789062 50 611.274414062 c 2
 50 628.711914062 l 2
 50 668.069335938 81.8984375 700.000976562 121.2890625 700.000976562 c 2
 638.69921875 700.000976562 l 2
535.413085938 429.959960938 m 2
 631.828125 429.993164062 709.98828125 351.831054688 709.98828125 255.416015625 c 2
 709.98828125 174.57421875 l 2
 709.98828125 78.1591796875 631.829101562 0 535.4140625 0 c 2
 121.845703125 0 l 2
 82.193359375 -0 50.033203125 32.16015625 50.033203125 71.8125 c 2
 50.033203125 88.1708984375 l 2
 50.033203125 127.823242188 82.193359375 159.983398438 121.845703125 159.983398438 c 2
 486.928710938 159.983398438 l 2
 517.322265625 159.983398438 541.924804688 184.619140625 541.924804688 214.98046875 c 0
 541.924804688 245.374023438 517.2890625 269.9765625 486.927734375 269.9765625 c 2
 121.844726562 269.9765625 l 2
 82.1923828125 269.9765625 50.0322265625 302.13671875 50.0322265625 341.7890625 c 2
 50.0322265625 358.147460938 l 2
 50.0322265625 397.799804688 82.1923828125 429.959960938 121.844726562 429.959960938 c 2
 535.413085938 429.959960938 l 2
EndSplineSet
Validated: 524321
EndChar

StartChar: six
Encoding: 54 54 24
Width: 760
Flags: W
LayerCount: 2
Fore
SplineSet
638.568359375 700.000976562 m 2
 678.024414062 700.000976562 709.955078125 668.037109375 709.955078125 628.614257812 c 2
 709.955078125 611.405273438 l 2
 709.955078125 571.982421875 677.991210938 540.018554688 638.568359375 540.018554688 c 2
 121.38671875 540.018554688 l 2
 81.9638671875 540.018554688 50 571.982421875 50 611.405273438 c 2
 50 628.614257812 l 2
 50 668.037109375 81.9638671875 700.000976562 121.38671875 700.000976562 c 2
 638.568359375 700.000976562 l 2
709.987304688 169.961914062 m 2
 709.955078125 76.0986328125 633.888671875 0.0009765625 540.025390625 0.0009765625 c 2
 121.385742188 0.0009765625 l 2
 81.962890625 0.0009765625 49.9990234375 31.96484375 49.9990234375 71.3876953125 c 2
 49.9990234375 358.60546875 l 2
 49.9990234375 398.028320312 81.962890625 429.9921875 121.385742188 429.9921875 c 2
 540.025390625 429.9921875 l 2
 633.888671875 429.9921875 709.987304688 353.893554688 709.987304688 260.030273438 c 2
 709.987304688 169.961914062 l 2
541.921875 215.013671875 m 0
 541.921875 245.374023438 517.287109375 270.008789062 486.92578125 270.008789062 c 2
 272.993164062 270.008789062 l 2
 242.599609375 270.008789062 217.997070312 245.373046875 217.997070312 215.012695312 c 0
 217.997070312 184.619140625 242.6328125 160.016601562 272.993164062 160.016601562 c 2
 486.92578125 160.016601562 l 2
 517.319335938 160.016601562 541.921875 184.65234375 541.921875 215.013671875 c 0
EndSplineSet
Validated: 524289
EndChar

StartChar: seven
Encoding: 55 55 25
Width: 759
Flags: W
LayerCount: 2
Fore
SplineSet
708.909179688 71.3544921875 m 2
 708.974609375 31.931640625 677.010742188 0 637.620117188 0 c 2
 612.330078125 0 l 2
 572.939453125 0 540.975585938 31.931640625 540.975585938 71.3544921875 c 2
 540.975585938 468.663085938 l 2
 540.975585938 508.053710938 509.043945312 540.017578125 469.62109375 540.017578125 c 2
 121.354492188 540.017578125 l 2
 81.9638671875 540.017578125 50 571.94921875 50 611.372070312 c 2
 50 628.646484375 l 2
 50 668.037109375 81.931640625 700.000976562 121.354492188 700.000976562 c 2
 523.177734375 700.000976562 l 2
 625.744140625 700.000976562 708.909179688 616.8359375 708.909179688 514.26953125 c 2
 708.909179688 71.3544921875 l 2
EndSplineSet
Validated: 524321
EndChar

StartChar: eight
Encoding: 56 56 26
Width: 760
Flags: W
LayerCount: 2
Fore
SplineSet
709.98828125 71.19140625 m 2
 709.98828125 31.8662109375 678.08984375 0 638.764648438 0 c 2
 121.223632812 0 l 2
 81.8984375 0 50 31.8662109375 50 71.2236328125 c 2
 50 628.77734375 l 2
 50 668.102539062 81.8662109375 700.000976562 121.223632812 700.000976562 c 2
 638.764648438 700.000976562 l 2
 678.08984375 700.000976562 709.98828125 668.134765625 709.98828125 628.77734375 c 2
 709.98828125 71.19140625 l 2
541.923828125 485.021484375 m 0
 541.923828125 515.381835938 517.2890625 540.016601562 486.927734375 540.016601562 c 2
 272.995117188 540.016601562 l 2
 242.6015625 540.016601562 217.999023438 515.380859375 217.999023438 485.020507812 c 0
 217.999023438 454.626953125 242.634765625 430.024414062 272.995117188 430.024414062 c 2
 486.927734375 430.024414062 l 2
 517.321289062 430.024414062 541.923828125 454.66015625 541.923828125 485.021484375 c 0
541.924804688 215.01171875 m 0
 541.924804688 245.372070312 517.2890625 270.006835938 486.927734375 270.006835938 c 2
 272.995117188 270.006835938 l 2
 242.6015625 270.006835938 217.999023438 245.37109375 217.999023438 215.010742188 c 0
 217.999023438 184.6171875 242.634765625 160.014648438 272.99609375 160.014648438 c 2
 486.928710938 160.014648438 l 2
 517.322265625 160.014648438 541.924804688 184.650390625 541.924804688 215.01171875 c 0
EndSplineSet
Validated: 524289
EndChar

StartChar: nine
Encoding: 57 57 27
Width: 760
Flags: W
LayerCount: 2
Fore
SplineSet
638.666992188 700.000976562 m 2
 678.057617188 700.000976562 709.989257812 668.0703125 709.989257812 628.6796875 c 2
 709.989257812 341.331054688 l 2
 709.989257812 301.940429688 678.057617188 270.008789062 638.666992188 270.008789062 c 2
 227.846679688 270.008789062 l 2
 129.631835938 270.008789062 50 349.640625 50 447.85546875 c 2
 50 522.154296875 l 2
 50 620.369140625 129.631835938 700.000976562 227.846679688 700.000976562 c 2
 638.666992188 700.000976562 l 2
50.033203125 88.6630859375 m 2
 50.033203125 128.053710938 81.96484375 159.985351562 121.35546875 159.985351562 c 2
 638.66796875 159.985351562 l 2
 678.05859375 159.985351562 709.990234375 128.053710938 709.990234375 88.6630859375 c 2
 709.990234375 71.3232421875 l 2
 709.990234375 31.9326171875 678.05859375 0.0009765625 638.66796875 0.0009765625 c 2
 121.35546875 0.0009765625 l 2
 81.96484375 0.0009765625 50.033203125 31.9326171875 50.033203125 71.3232421875 c 2
 50.033203125 88.6630859375 l 2
541.924804688 485.022460938 m 0
 541.958007812 515.3828125 517.321289062 540.018554688 486.927734375 540.018554688 c 2
 272.995117188 540.018554688 l 2
 242.6015625 540.018554688 217.999023438 515.3828125 217.999023438 485.022460938 c 0
 217.999023438 454.62890625 242.634765625 430.026367188 272.99609375 430.026367188 c 2
 486.928710938 430.026367188 l 2
 517.322265625 430.026367188 541.924804688 454.662109375 541.924804688 485.022460938 c 0
EndSplineSet
Validated: 524321
EndChar

StartChar: colon
Encoding: 58 58 28
Width: 447
Flags: W
LayerCount: 2
Fore
SplineSet
344.415039062 208.337890625 m 2
 377.916992188 173.985351562 396.6640625 127.85546875 396.6640625 79.8603515625 c 2
 396.6640625 76.5888671875 l 2
 396.6640625 34.2861328125 362.376953125 -0.0009765625 320.07421875 -0.0009765625 c 2
 127.374023438 -0.0009765625 l 2
 84.646484375 -0.0009765625 50 34.6455078125 50 77.373046875 c 0
 50 120.100585938 84.646484375 154.747070312 127.374023438 154.747070312 c 2
 140.166015625 154.747070312 l 2
 160.711914062 154.747070312 171.247070312 179.349609375 157.047851562 194.203125 c 2
 147.16796875 204.541992188 l 2
 84.810546875 269.942382812 50 356.870117188 50 447.265625 c 2
 50 453.0234375 l 2
 50 473.961914062 75.453125 484.333007812 90.0771484375 469.31640625 c 2
 344.415039062 208.337890625 l 2
EndSplineSet
Validated: 524321
EndChar

StartChar: semicolon
Encoding: 59 59 29
Width: 251
Flags: W
LayerCount: 2
Fore
SplineSet
168.334960938 703.337890625 m 0
 186.198242188 703.337890625 200.69140625 688.844726562 200.69140625 670.981445312 c 2
 200.69140625 118.3359375 l 2
 200.69140625 52.96875 147.723632812 0.0009765625 82.3564453125 0.0009765625 c 0
 64.4931640625 0.0009765625 50 14.4619140625 50 32.357421875 c 2
 50 585.002929688 l 2
 50 650.370117188 102.967773438 703.337890625 168.334960938 703.337890625 c 0
EndSplineSet
Validated: 524289
EndChar

StartChar: less
Encoding: 60 60 30
Width: 354
Flags: W
LayerCount: 2
Fore
SplineSet
247.934570312 477.336914062 m 0
 278.982421875 477.336914062 304.173828125 452.1484375 304.173828125 421.067382812 c 2
 304.173828125 256.274414062 l 2
 304.173828125 225.193359375 278.982421875 200.001953125 247.901367188 200.001953125 c 0
 223.495117188 200.001953125 203.702148438 219.794921875 203.702148438 244.201171875 c 0
 203.702148438 268.607421875 183.909179688 288.400390625 159.502929688 288.400390625 c 2
 100.25390625 288.400390625 l 2
 72.5107421875 288.432617188 50.001953125 310.909179688 50.001953125 338.685546875 c 0
 50.001953125 366.428710938 72.5107421875 388.905273438 100.25390625 388.905273438 c 2
 159.502929688 388.905273438 l 2
 183.909179688 388.905273438 203.702148438 408.698242188 203.702148438 433.104492188 c 0
 203.702148438 457.543945312 223.495117188 477.336914062 247.934570312 477.336914062 c 0
EndSplineSet
Validated: 524289
EndChar

StartChar: equal
Encoding: 61 61 31
Width: 401
Flags: W
LayerCount: 2
Fore
SplineSet
93.0546875 738.361328125 m 2
 135.84765625 738.361328125 170.560546875 703.6484375 170.560546875 660.822265625 c 2
 170.560546875 495.866210938 l 2
 170.560546875 474.404296875 153.155273438 456.999023438 131.693359375 456.999023438 c 2
 127.538085938 456.999023438 l 2
 84.7119140625 456.999023438 50 491.744140625 50 534.5703125 c 2
 50 699.494140625 l 2
 50 720.956054688 67.4052734375 738.361328125 88.8671875 738.361328125 c 2
 93.0546875 738.361328125 l 2
269.724609375 738.360351562 m 0
 314.873046875 738.360351562 351.450195312 701.750976562 351.450195312 656.634765625 c 2
 351.450195312 495.866210938 l 2
 351.450195312 474.404296875 334.044921875 456.999023438 312.583007812 456.999023438 c 0
 267.434570312 456.999023438 230.857421875 493.608398438 230.857421875 538.724609375 c 2
 230.857421875 699.493164062 l 2
 230.857421875 720.955078125 248.262695312 738.360351562 269.724609375 738.360351562 c 0
EndSplineSet
Validated: 524289
EndChar

StartChar: greater
Encoding: 62 62 32
Width: 354
Flags: W
LayerCount: 2
Fore
SplineSet
106.272460938 200 m 0
 75.19140625 199.966796875 50 225.154296875 50 256.235351562 c 2
 50 421.028320312 l 2
 50 452.109375 75.19140625 477.30078125 106.272460938 477.30078125 c 0
 130.678710938 477.30078125 150.471679688 457.5078125 150.471679688 433.1015625 c 0
 150.471679688 408.6953125 170.264648438 388.90234375 194.670898438 388.90234375 c 2
 253.919921875 388.90234375 l 2
 281.663085938 388.90234375 304.171875 366.393554688 304.171875 338.650390625 c 0
 304.171875 310.907226562 281.663085938 288.3984375 253.919921875 288.3984375 c 2
 194.670898438 288.3984375 l 2
 170.264648438 288.3984375 150.471679688 268.60546875 150.471679688 244.19921875 c 0
 150.471679688 219.79296875 130.678710938 200 106.272460938 200 c 0
EndSplineSet
Validated: 524321
EndChar

StartChar: question
Encoding: 63 63 33
Width: 460
Flags: W
LayerCount: 2
Fore
SplineSet
384.067382812 542.536132812 m 0
 400.360351562 496.40625 409.159179688 447.7578125 409.650390625 398.814453125 c 0
 409.87890625 376.665039062 409.551757812 360.9609375 408.701171875 351.669921875 c 0
 406.018554688 302.758789062 401.012695312 261.732421875 393.651367188 228.590820312 c 0
 386.2578125 195.416015625 374.0546875 161.423828125 356.9765625 126.581054688 c 0
 343.857421875 99.8193359375 325.896484375 68.7060546875 303.060546875 33.2412109375 c 0
 289.810546875 12.6298828125 266.875976562 0.0009765625 242.404296875 0.0009765625 c 0
 186.295898438 0.0009765625 152.107421875 61.5732421875 181.2578125 109.53515625 c 0
 186.361328125 117.943359375 191.040039062 125.794921875 195.227539062 133.123046875 c 0
 214.30078125 166.297851562 228.859375 199.766601562 238.936523438 233.595703125 c 0
 248.947265625 267.424804688 255.327148438 306.782226562 258.009765625 351.668945312 c 0
 258.6640625 359.030273438 258.991210938 370.088867188 258.991210938 384.84375 c 0
 258.991210938 467.877929688 239.557617188 544.59765625 200.723632812 614.9375 c 1
 200.723632812 423.546875 l 2
 200.723632812 383.862304688 168.563476562 351.702148438 128.87890625 351.702148438 c 2
 121.844726562 351.702148438 l 2
 82.16015625 351.702148438 50 383.862304688 50 423.546875 c 2
 50 615.88671875 l 2
 50 664.208984375 89.1611328125 703.370117188 137.483398438 703.370117188 c 2
 156.752929688 703.370117188 l 2
 258.958984375 703.370117188 350.041992188 638.918945312 384.067382812 542.536132812 c 0
EndSplineSet
Validated: 524321
EndChar

StartChar: at
Encoding: 64 64 34
Width: 1069
Flags: W
LayerCount: 2
Fore
SplineSet
427.024414062 20.185546875 m 2
 414.002929688 7.2294921875 396.401367188 -0.001953125 378.047851562 -0.001953125 c 2
 225.458007812 -0.001953125 l 2
 128.551757812 -0.001953125 50 78.5498046875 50 175.456054688 c 2
 50 527.876953125 l 2
 50 624.783203125 128.551757812 703.334960938 225.458007812 703.334960938 c 2
 378.047851562 703.334960938 l 2
 396.401367188 703.334960938 414.002929688 696.072265625 427.024414062 683.149414062 c 2
 448.944335938 661.360351562 l 2
 492.948242188 617.651367188 461.965820312 542.567382812 399.967773438 542.567382812 c 2
 288.306640625 542.567382812 l 2
 249.930664062 542.567382812 218.817382812 511.454101562 218.817382812 473.078125 c 2
 218.817382812 230.256835938 l 2
 218.817382812 191.880859375 249.930664062 160.767578125 288.306640625 160.767578125 c 2
 399.967773438 160.767578125 l 2
 461.998046875 160.767578125 492.948242188 85.68359375 448.944335938 41.974609375 c 2
 427.024414062 20.185546875 l 2
608.01171875 633.846679688 m 2
 608.01171875 672.22265625 639.125 703.3359375 677.500976562 703.3359375 c 2
 707.337890625 703.3359375 l 2
 745.713867188 703.3359375 776.827148438 672.22265625 776.827148438 633.846679688 c 2
 776.827148438 69.48828125 l 2
 776.827148438 31.1123046875 745.713867188 -0.0009765625 707.337890625 -0.0009765625 c 2
 677.500976562 -0.0009765625 l 2
 639.125 -0.0009765625 608.01171875 31.1123046875 608.01171875 69.48828125 c 2
 608.01171875 223.844726562 l 2
 608.01171875 250.606445312 586.3203125 272.297851562 559.55859375 272.297851562 c 2
 379.094726562 272.297851562 l 2
 340.71875 272.297851562 309.60546875 303.411132812 309.60546875 341.787109375 c 2
 309.60546875 363.576171875 l 2
 309.60546875 401.952148438 340.71875 433.065429688 379.094726562 433.065429688 c 2
 559.55859375 433.065429688 l 2
 586.3203125 433.065429688 608.01171875 454.756835938 608.01171875 481.518554688 c 2
 608.01171875 633.846679688 l 2
949.47265625 703.3359375 m 2
 987.881835938 703.3359375 1018.99414062 672.22265625 1018.99414062 633.846679688 c 2
 1018.99414062 72.9892578125 l 2
 1018.99414062 54.5703125 1011.66601562 36.9033203125 998.64453125 23.849609375 c 2
 995.143554688 20.3486328125 l 2
 982.122070312 7.3271484375 964.422851562 -0.0009765625 946.00390625 -0.0009765625 c 2
 919.700195312 -0.0009765625 l 2
 881.32421875 -0.0009765625 850.2109375 31.1123046875 850.2109375 69.48828125 c 2
 850.2109375 633.846679688 l 2
 850.178710938 672.22265625 881.291992188 703.3359375 919.66796875 703.3359375 c 2
 949.47265625 703.3359375 l 2
EndSplineSet
Validated: 524321
EndChar

StartChar: A
Encoding: 65 65 35
AltUni2: 0000c5.ffffffff.0 0000c4.ffffffff.0 0000c3.ffffffff.0 0000c2.ffffffff.0 0000c1.ffffffff.0 0000c0.ffffffff.0
Width: 820
Flags: W
LayerCount: 2
Fore
SplineSet
717.528320312 700.001953125 m 2
 737.158203125 700.001953125 753.057617188 684.102539062 753.057617188 664.505859375 c 2
 753.057617188 440.66015625 l 2
 753.057617188 421.030273438 737.157226562 405.129882812 717.52734375 405.129882812 c 2
 449.28515625 405.129882812 l 2
 429.098632812 405.129882812 409.436523438 411.541992188 393.111328125 423.41796875 c 2
 52.533203125 671.27734375 l 2
 40.1337890625 680.33984375 46.513671875 700.001953125 61.890625 700.001953125 c 2
 218.471679688 700.001953125 l 2
 245.560546875 700.001953125 271.962890625 691.430664062 293.8828125 675.498046875 c 2
 451.28125 560.859375 l 2
 460.506835938 554.15234375 471.630859375 550.520507812 483.048828125 550.520507812 c 2
 578.25390625 550.520507812 l 2
 594.513671875 550.520507812 607.666015625 563.705078125 607.666015625 579.932617188 c 2
 607.666015625 664.471679688 l 2
 607.666015625 684.1015625 623.56640625 700.001953125 643.196289062 700.001953125 c 2
 717.528320312 700.001953125 l 2
717.52734375 294.875 m 2
 737.157226562 294.875 753.059570312 278.9765625 753.125 259.346679688 c 2
 753.125 35.533203125 l 2
 753.125 15.9033203125 737.224609375 0.0029296875 717.594726562 0.0029296875 c 2
 643.262695312 0.0029296875 l 2
 623.6328125 0.0029296875 607.732421875 15.9033203125 607.732421875 35.533203125 c 2
 607.732421875 120.072265625 l 2
 607.732421875 136.33203125 594.580078125 149.484375 578.3203125 149.484375 c 2
 483.115234375 149.484375 l 2
 471.697265625 149.484375 460.573242188 145.852539062 451.34765625 139.145507812 c 2
 293.916015625 24.5400390625 l 2
 271.99609375 8.607421875 245.59375 0.0029296875 218.504882812 0.0029296875 c 2
 61.923828125 0.0029296875 l 2
 46.546875 0.0029296875 40.134765625 19.6982421875 52.5673828125 28.7275390625 c 2
 393.112304688 276.586914062 l 2
 409.4375 288.462890625 429.099609375 294.875 449.28515625 294.875 c 2
 717.52734375 294.875 l 2
EndSplineSet
Validated: 524289
EndChar

StartChar: B
Encoding: 66 66 36
Width: 814
Flags: W
LayerCount: 2
Fore
SplineSet
328.470703125 421.094726562 m 2
 485.314453125 421.095703125 l 2
 514.203125 421.095703125 537.595703125 397.703125 537.595703125 368.814453125 c 2
 537.595703125 327.984375 l 2
 537.595703125 299.095703125 514.203125 275.703125 485.314453125 275.703125 c 2
 328.471679688 275.703125 l 2
 299.583007812 275.703125 276.190429688 299.127929688 276.190429688 327.983398438 c 2
 276.190429688 368.813476562 l 2
 276.190429688 397.702148438 299.615234375 421.094726562 328.470703125 421.094726562 c 2
53.09765625 495.787109375 m 2
 32.5517578125 495.787109375 24.140625 522.223632812 40.923828125 534.099609375 c 2
 244.453125 678.084960938 l 2
 264.639648438 692.381835938 288.751953125 700.037109375 313.485351562 700.037109375 c 2
 500.263671875 700.037109375 l 2
 524.997070312 700.037109375 549.109375 692.348632812 569.295898438 678.083984375 c 2
 772.890625 534.06640625 l 2
 789.673828125 522.22265625 781.265625 495.788085938 760.719726562 495.788085938 c 2
 610.682617188 495.788085938 l 2
 587.650390625 495.788085938 565.141601562 502.919921875 546.330078125 516.235351562 c 2
 515.478515625 538.057617188 l 2
 500.265625 548.821289062 482.108398438 554.612304688 463.459960938 554.612304688 c 2
 350.359375 554.612304688 l 2
 331.7109375 554.612304688 313.520507812 548.854492188 298.33984375 538.057617188 c 2
 267.48828125 516.235351562 l 2
 248.676757812 502.952148438 226.200195312 495.787109375 203.134765625 495.787109375 c 2
 53.09765625 495.787109375 l 2
760.65234375 204.220703125 m 2
 781.231445312 204.220703125 789.609375 177.81640625 772.826171875 165.940429688 c 2
 569.296875 21.955078125 l 2
 549.110351562 7.658203125 524.998046875 0.0029296875 500.264648438 0.0029296875 c 2
 313.486328125 0.0029296875 l 2
 288.752929688 0.0029296875 264.640625 7.69140625 244.455078125 21.9560546875 c 2
 40.92578125 165.94140625 l 2
 24.142578125 177.78515625 32.55078125 204.219726562 53.0966796875 204.219726562 c 2
 203.133789062 204.219726562 l 2
 226.166015625 204.219726562 248.674804688 197.087890625 267.486328125 183.772460938 c 2
 298.337890625 161.950195312 l 2
 313.55078125 151.186523438 331.708007812 145.395507812 350.356445312 145.395507812 c 2
 463.391601562 145.395507812 l 2
 482.006835938 145.395507812 500.197265625 151.186523438 515.41015625 161.950195312 c 2
 546.26171875 183.772460938 l 2
 565.073242188 197.055664062 587.549804688 204.220703125 610.615234375 204.220703125 c 2
 760.65234375 204.220703125 l 2
EndSplineSet
Validated: 524321
EndChar

StartChar: C
Encoding: 67 67 37
AltUni2: 0000c7.ffffffff.0
Width: 565
Flags: W
LayerCount: 2
Fore
SplineSet
446.038085938 614.677734375 m 2
 474.665039062 614.677734375 497.860351562 591.479492188 497.794921875 562.852539062 c 2
 497.794921875 51.822265625 l 2
 497.794921875 23.1953125 474.598632812 -0.0009765625 445.971679688 -0.0009765625 c 2
 404.192382812 -0.0009765625 l 2
 375.598632812 -0.0009765625 352.40234375 23.1953125 352.40234375 51.822265625 c 2
 352.40234375 336.32421875 l 2
 352.40234375 350.196289062 341.147460938 361.451171875 327.275390625 361.451171875 c 2
 142.001953125 361.451171875 l 2
 95.7734375 361.451171875 58.3134765625 398.911132812 58.3134765625 445.139648438 c 2
 58.3134765625 648.2109375 l 2
 58.3134765625 676.837890625 81.509765625 700.034179688 110.13671875 700.034179688 c 2
 151.916015625 700.034179688 l 2
 180.54296875 700.034179688 203.739257812 676.837890625 203.739257812 648.2109375 c 2
 203.739257812 529.548828125 l 2
 203.739257812 516.985351562 213.9140625 506.810546875 226.477539062 506.810546875 c 2
 329.73046875 506.810546875 l 2
 342.293945312 506.810546875 352.46875 516.985351562 352.46875 529.548828125 c 2
 352.46875 562.854492188 l 2
 352.46875 591.481445312 375.631835938 614.677734375 404.258789062 614.677734375 c 2
 446.038085938 614.677734375 l 2
EndSplineSet
Validated: 524321
EndChar

StartChar: D
Encoding: 68 68 38
Width: 482
Flags: W
LayerCount: 2
Fore
SplineSet
470.568359375 643.56640625 m 2
 500.111328125 611.275390625 508.155273438 564.78515625 491.17578125 524.413085938 c 2
 289.479492188 44.5615234375 l 2
 278.126953125 17.5380859375 251.692382812 -0.0302734375 222.37890625 -0.0302734375 c 2
 169.869140625 -0.0302734375 l 2
 142.877929688 -0.0302734375 124.58984375 27.484375 135.059570312 52.3818359375 c 2
 209.522460938 229.508789062 l 2
 215.37890625 243.478515625 205.10546875 258.920898438 189.958007812 258.920898438 c 2
 130.970703125 258.920898438 l 2
 105.190429688 258.920898438 84.2841796875 279.827148438 84.2841796875 305.607421875 c 2
 84.2841796875 330.340820312 l 2
 84.2841796875 371.204101562 117.42578125 404.345703125 158.2890625 404.345703125 c 2
 251.989257812 404.345703125 l 2
 270.768554688 404.345703125 287.715820312 415.6328125 295.01171875 432.939453125 c 2
 325.666992188 505.864257812 l 2
 335.416015625 529.02734375 318.403320312 554.611328125 293.27734375 554.611328125 c 2
 221.791992188 554.611328125 l 2
 213.024414062 554.611328125 204.911132812 549.8671875 200.658203125 542.178710938 c 2
 182.435546875 509.396484375 l 2
 174.19140625 494.608398438 158.5859375 485.415039062 141.638671875 485.415039062 c 2
 87.5908203125 485.415039062 l 2
 49.5419921875 485.415039062 25.4951171875 526.278320312 43.9794921875 559.518554688 c 2
 108.692382812 676.021484375 l 2
 116.936523438 690.841796875 132.541992188 700.03515625 149.489257812 700.03515625 c 2
 398.36328125 700.03515625 l 2
 411.450195312 700.03515625 423.948242188 694.505859375 432.78125 684.854492188 c 2
 470.568359375 643.56640625 l 2
EndSplineSet
Validated: 524321
EndChar

StartChar: E
Encoding: 69 69 39
AltUni2: 0000cb.ffffffff.0 0000ca.ffffffff.0 0000c9.ffffffff.0 0000c8.ffffffff.0
Width: 879
Flags: W
LayerCount: 2
Fore
SplineSet
852.844726562 696.141601562 m 2
 880.391601562 696.141601562 902.703125 673.829101562 902.637695312 646.314453125 c 2
 902.637695312 601.263671875 l 2
 902.637695312 573.749023438 880.325195312 551.436523438 852.810546875 551.436523438 c 2
 792.7109375 551.436523438 l 2
 781.5546875 551.436523438 772.525390625 542.407226562 772.525390625 531.250976562 c 2
 772.525390625 49.861328125 l 2
 772.525390625 22.3466796875 750.212890625 0.0341796875 722.698242188 0.0341796875 c 2
 677.647460938 0.0341796875 l 2
 650.1328125 0.0341796875 627.8203125 22.3466796875 627.8203125 49.861328125 c 2
 627.8203125 532.428710938 l 2
 627.8203125 542.930664062 619.314453125 551.436523438 608.8125 551.436523438 c 2
 607.536132812 551.436523438 l 2
 599.030273438 551.436523438 591.571289062 545.776367188 589.248046875 537.59765625 c 2
 447.421875 36.2841796875 l 2
 441.336914062 14.822265625 421.772460938 0.001953125 399.459960938 0.001953125 c 2
 251.05859375 0.001953125 l 2
 228.22265625 0.001953125 208.298828125 15.5419921875 202.737304688 37.69140625 c 2
 52.732421875 634.733398438 l 2
 44.8154296875 666.173828125 68.6005859375 696.698242188 101.055664062 696.698242188 c 2
 147.938476562 696.698242188 l 2
 170.708984375 696.698242188 190.600585938 681.255859375 196.227539062 659.205078125 c 2
 311.814453125 206.965820312 l 2
 316.198242188 189.85546875 340.408203125 189.528320312 345.217773438 206.541015625 c 2
 473.465820312 659.859375 l 2
 479.55078125 681.321289062 499.115234375 696.141601562 521.427734375 696.141601562 c 2
 852.844726562 696.141601562 l 2
EndSplineSet
Validated: 524321
EndChar

StartChar: F
Encoding: 70 70 40
Width: 765
Flags: W
LayerCount: 2
Fore
SplineSet
677.646484375 214.62109375 m 2
 715.663085938 214.62109375 739.712890625 173.7578125 721.293945312 140.55078125 c 2
 656.581054688 24.0478515625 l 2
 648.336914062 9.2275390625 632.731445312 0.0341796875 615.784179688 0.0341796875 c 2
 366.91015625 0.0341796875 l 2
 353.823242188 0.0341796875 341.325195312 5.5634765625 332.4921875 15.21484375 c 2
 294.705078125 56.5029296875 l 2
 265.162109375 88.76171875 257.114257812 135.284179688 274.061523438 175.590820312 c 2
 475.7578125 655.442382812 l 2
 487.110351562 682.465820312 513.544921875 700.034179688 542.858398438 700.034179688 c 2
 595.368164062 700.034179688 l 2
 622.359375 700.034179688 640.647460938 672.51953125 630.177734375 647.622070312 c 2
 555.71484375 470.495117188 l 2
 549.858398438 456.525390625 560.131835938 441.083007812 575.279296875 441.083007812 c 2
 634.266601562 441.083007812 l 2
 660.046875 441.083007812 680.953125 420.176757812 680.953125 394.396484375 c 2
 680.953125 369.6953125 l 2
 680.953125 328.83203125 647.811523438 295.690429688 606.948242188 295.690429688 c 2
 513.248046875 295.690429688 l 2
 494.46875 295.690429688 477.521484375 284.403320312 470.225585938 267.096679688 c 2
 439.5703125 194.171875 l 2
 429.821289062 171.008789062 446.833984375 145.424804688 471.959960938 145.424804688 c 2
 543.4453125 145.424804688 l 2
 552.212890625 145.424804688 560.326171875 150.168945312 564.579101562 157.857421875 c 2
 582.801757812 190.639648438 l 2
 591.045898438 205.427734375 606.651367188 214.62109375 623.598632812 214.62109375 c 2
 677.646484375 214.62109375 l 2
235.388671875 441.051757812 m 2
 258.551757812 441.051757812 274.19140625 417.462890625 265.194335938 396.131835938 c 2
 127.916015625 71.748046875 l 2
 109.497070312 28.267578125 66.8671875 0.0009765625 19.6572265625 0.0009765625 c 2
 -11.390625 0.0009765625 l 2
 -34.521484375 0.0009765625 -50.1923828125 23.6220703125 -41.1630859375 44.9208984375 c 2
 96.08203125 369.3046875 l 2
 114.500976562 412.78515625 157.130859375 441.051757812 204.340820312 441.051757812 c 2
 235.388671875 441.051757812 l 2
EndSplineSet
Validated: 524321
EndChar

StartChar: G
Encoding: 71 71 41
Width: 733
Flags: W
LayerCount: 2
Fore
SplineSet
717.549804688 633.71875 m 2
 749.055664062 602.572265625 758.184570312 555.298828125 740.55078125 514.665039062 c 2
 535.58203125 43.6796875 l 2
 524.033203125 17.146484375 497.860351562 0.0029296875 468.939453125 0.0029296875 c 2
 287.919921875 0.0029296875 l 2
 247.744140625 0.0029296875 212.671875 27.1572265625 202.5625 66.0244140625 c 2
 53.048828125 641.27734375 l 2
 45.328125 671.016601562 67.771484375 700.036132812 98.4921875 700.036132812 c 2
 116.71484375 700.036132812 l 2
 158.755859375 700.036132812 195.49609375 671.60546875 206.063476562 630.938476562 c 2
 323.875 177.620117188 l 2
 328.782226562 158.709960938 345.860351562 145.4921875 365.424804688 145.4921875 c 2
 393.0703125 145.4921875 l 2
 410.180664062 145.4921875 425.655273438 155.634765625 432.459960938 171.305664062 c 2
 581.450195312 514.271484375 l 2
 589.53125 532.821289062 575.954101562 553.53125 555.735351562 553.53125 c 2
 542.713867188 553.53125 l 2
 533.193359375 553.53125 524.5234375 548.1328125 520.3359375 539.59375 c 2
 494.490234375 486.854492188 l 2
 488.69921875 475.043945312 476.692382812 467.551757812 463.540039062 467.551757812 c 2
 407.13671875 467.551757812 l 2
 368.302734375 467.551757812 342.947265625 508.250976562 360.025390625 543.09375 c 2
 410.833984375 646.739257812 l 2
 426.504882812 678.703125 459.025390625 698.987304688 494.653320312 698.987304688 c 2
 630.688476562 698.987304688 l 2
 644.00390625 698.987304688 656.795898438 693.719726562 666.283203125 684.36328125 c 2
 717.549804688 633.71875 l 2
EndSplineSet
Validated: 524321
EndChar

StartChar: H
Encoding: 72 72 42
Width: 691
Flags: W
LayerCount: 2
Fore
SplineSet
589.641601562 700.001953125 m 2
 617.057617188 700.001953125 639.3046875 677.787109375 639.337890625 650.337890625 c 2
 639.337890625 604.2734375 l 2
 639.337890625 576.82421875 617.090820312 554.577148438 589.641601562 554.577148438 c 2
 100.890625 554.577148438 l 2
 73.44140625 554.577148438 51.1943359375 576.82421875 51.1943359375 604.2734375 c 2
 51.1943359375 650.305664062 l 2
 51.1943359375 677.754882812 73.44140625 700.001953125 100.890625 700.001953125 c 2
 589.641601562 700.001953125 l 2
426.288085938 277.305664062 m 2
 264.276367188 277.305664062 l 2
 236.827148438 277.305664062 214.580078125 299.552734375 214.580078125 327.001953125 c 2
 214.580078125 373.034179688 l 2
 214.580078125 400.483398438 236.827148438 422.73046875 264.276367188 422.73046875 c 2
 426.288085938 422.73046875 l 2
 453.737304688 422.73046875 475.984375 400.483398438 475.984375 373.034179688 c 2
 475.984375 327.001953125 l 2
 475.984375 299.552734375 453.737304688 277.305664062 426.288085938 277.305664062 c 2
589.641601562 145.392578125 m 2
 617.057617188 145.392578125 639.3046875 123.177734375 639.337890625 95.728515625 c 2
 639.337890625 49.6640625 l 2
 639.337890625 22.21484375 617.090820312 -0.0322265625 589.641601562 -0.0322265625 c 2
 100.890625 -0.0322265625 l 2
 73.44140625 -0.0322265625 51.1943359375 22.21484375 51.1943359375 49.6640625 c 2
 51.1943359375 95.6962890625 l 2
 51.1943359375 123.145507812 73.44140625 145.392578125 100.890625 145.392578125 c 2
 589.641601562 145.392578125 l 2
EndSplineSet
Validated: 524289
EndChar

StartChar: I
Encoding: 73 73 43
AltUni2: 0000cf.ffffffff.0 0000ce.ffffffff.0 0000cd.ffffffff.0 0000cc.ffffffff.0
Width: 367
Flags: W
LayerCount: 2
Fore
SplineSet
256.004882812 700.03515625 m 2
 280.640625 700.03515625 300.630859375 680.045898438 300.663085938 655.377929688 c 2
 300.663085938 59.416015625 l 2
 300.663085938 26.6015625 274.064453125 0.0029296875 241.25 0.0029296875 c 2
 155.860351562 0.0029296875 l 2
 123.045898438 0.0029296875 96.447265625 26.6015625 96.447265625 59.416015625 c 2
 96.447265625 117.618164062 l 2
 96.447265625 134.990234375 105.051757812 151.217773438 119.447265625 160.966796875 c 2
 128.90234375 167.37890625 l 2
 145.358398438 178.53515625 155.23828125 197.118164062 155.23828125 217.009765625 c 2
 155.23828125 419.426757812 l 2
 155.23828125 457.083007812 124.713867188 487.640625 87.0244140625 487.640625 c 0
 59.7392578125 487.640625 37.623046875 509.756835938 37.623046875 537.041992188 c 2
 37.623046875 553.334960938 l 2
 37.623046875 571.426757812 44.8203125 588.766601562 57.6123046875 601.55859375 c 2
 127.592773438 671.5390625 l 2
 145.291992188 689.23828125 169.2734375 699.315429688 194.333984375 699.51171875 c 2
 256.004882812 700.03515625 l 2
EndSplineSet
Validated: 524289
EndChar

StartChar: J
Encoding: 74 74 44
Width: 563
Flags: W
LayerCount: 2
Fore
SplineSet
576.954101562 653.969726562 m 2
 595.700195312 627.731445312 598.513671875 593.279296875 584.282226562 564.358398438 c 2
 335.866210938 60.001953125 l 2
 317.741210938 23.26171875 280.37890625 0 239.41796875 0 c 2
 109.46875 0 l 2
 78.0283203125 0 52.509765625 25.486328125 52.509765625 56.9599609375 c 2
 52.509765625 96.12109375 l 2
 52.509765625 123.340820312 74.560546875 145.391601562 101.780273438 145.391601562 c 2
 171.826171875 145.391601562 l 2
 198.784179688 145.391601562 223.419921875 160.703125 235.329101562 184.880859375 c 2
 393.708984375 506.483398438 l 2
 404.63671875 528.665039062 388.5078125 554.609375 363.774414062 554.609375 c 2
 93.896484375 554.609375 l 2
 71.02734375 554.609375 52.509765625 573.126953125 52.509765625 595.99609375 c 2
 52.509765625 658.615234375 l 2
 52.509765625 681.484375 71.02734375 700.001953125 93.896484375 700.001953125 c 2
 517.93359375 700.001953125 l 2
 534.357421875 700.001953125 549.734375 692.084960938 559.287109375 678.736328125 c 2
 576.954101562 653.969726562 l 2
EndSplineSet
Validated: 524321
EndChar

StartChar: K
Encoding: 75 75 45
Width: 887
Flags: W
LayerCount: 2
Fore
SplineSet
504.803710938 551.37109375 m 2
 485.534179688 551.37109375 468.685546875 538.348632812 463.84375 519.700195312 c 2
 347.9296875 73.087890625 l 2
 341.74609375 49.2373046875 317.405273438 34.9404296875 293.5546875 41.1240234375 c 2
 239.1796875 55.2578125 l 2
 215.329101562 61.4736328125 201.032226562 85.7822265625 207.215820312 109.6328125 c 2
 243.79296875 250.575195312 l 2
 247.09765625 263.301757812 237.51171875 275.701171875 224.359375 275.701171875 c 2
 57.080078125 275.701171875 l 2
 30.6123046875 275.701171875 9.1171875 297.163085938 9.1171875 323.663085938 c 2
 9.1171875 373.09765625 l 2
 9.1171875 399.565429688 30.5791015625 421.060546875 57.0791015625 421.060546875 c 2
 272.549804688 421.060546875 l 2
 281.677734375 421.060546875 289.693359375 427.244140625 291.983398438 436.110351562 c 2
 349.95703125 659.498046875 l 2
 355.649414062 681.451171875 375.442382812 696.762695312 398.115234375 696.762695312 c 2
 593.98828125 696.762695312 l 2
 621.469726562 696.762695312 643.75 674.482421875 643.75 647.000976562 c 2
 643.75 601.1328125 l 2
 643.75 573.651367188 621.469726562 551.37109375 593.98828125 551.37109375 c 2
 504.803710938 551.37109375 l 2
848.98046875 257.70703125 m 2
 867.46484375 257.70703125 876.134765625 234.904296875 862.295898438 222.602539062 c 2
 647.643554688 31.8984375 l 2
 624.512695312 11.3193359375 594.610351562 -0.033203125 563.66015625 -0.033203125 c 2
 445.684570312 -0.033203125 l 2
 427.200195312 -0.033203125 418.530273438 22.802734375 432.336914062 35.0712890625 c 2
 646.989257812 225.775390625 l 2
 670.15234375 246.354492188 700.0546875 257.70703125 731.004882812 257.70703125 c 2
 848.98046875 257.70703125 l 2
EndSplineSet
Validated: 524321
EndChar

StartChar: L
Encoding: 76 76 46
Width: 389
Flags: W
LayerCount: 2
Fore
SplineSet
271.005859375 700.001953125 m 2
 298.782226562 700.001953125 321.2890625 677.494140625 321.223632812 649.750976562 c 2
 321.223632812 50.2548828125 l 2
 321.223632812 22.478515625 298.71484375 -0.0302734375 270.938476562 -0.0302734375 c 2
 142.984375 -0.0302734375 l 2
 103.724609375 -0.0302734375 68.3583984375 23.7216796875 53.47265625 60.037109375 c 2
 -10.7822265625 216.912109375 l 2
 -20.26953125 240.108398438 -9.1787109375 266.608398438 14.017578125 276.095703125 c 2
 64.6630859375 296.837890625 l 2
 87.826171875 306.325195312 114.293945312 295.266601562 123.814453125 272.103515625 c 2
 155.189453125 195.776367188 l 2
 159.671875 184.881835938 175.899414062 188.087890625 175.899414062 199.866210938 c 2
 175.899414062 649.716796875 l 2
 175.899414062 677.493164062 198.408203125 700.001953125 226.184570312 700.001953125 c 2
 271.005859375 700.001953125 l 2
EndSplineSet
Validated: 524321
EndChar

StartChar: M
Encoding: 77 77 47
Width: 561
Flags: W
LayerCount: 2
Fore
SplineSet
466.721679688 145.393554688 m 2
 491.258789062 145.393554688 511.150390625 125.533203125 511.18359375 100.99609375 c 2
 511.18359375 44.4296875 l 2
 511.18359375 19.892578125 491.291992188 0.0009765625 466.754882812 0.0009765625 c 2
 51.419921875 0.0009765625 l 2
 31.4306640625 0.0009765625 12.6845703125 9.65234375 1.0703125 25.912109375 c 2
 -14.7314453125 48.0283203125 l 2
 -32.626953125 73.056640625 -35.27734375 105.87109375 -21.7001953125 133.451171875 c 2
 227.56640625 639.541992188 l 2
 245.7890625 676.543945312 283.478515625 700.001953125 324.734375 700.001953125 c 2
 354.178710938 700.001953125 l 2
 386.077148438 700.001953125 411.922851562 674.15625 411.922851562 642.2578125 c 2
 411.922851562 604.568359375 l 2
 411.922851562 567.075195312 390.55859375 538.0234375 364.810546875 536.387695312 c 2
 360.295898438 536.19140625 l 2
 346.620117188 536.35546875 334.841796875 524.904296875 321.068359375 499.41796875 c 2
 169.885742188 193.454101562 l 2
 158.991210938 171.3046875 175.120117188 145.393554688 199.788085938 145.393554688 c 2
 466.721679688 145.393554688 l 2
EndSplineSet
Validated: 524321
EndChar

StartChar: N
Encoding: 78 78 48
AltUni2: 0000d1.ffffffff.0
Width: 1028
Flags: W
LayerCount: 2
Fore
SplineSet
976.280273438 54.4091796875 m 2
 984.819335938 28.857421875 965.809570312 2.45703125 938.883789062 2.45703125 c 2
 907.508789062 2.45703125 l 2
 867.3984375 2.45703125 831.802734375 28.07421875 819.076171875 66.123046875 c 2
 663.575195312 531.088867188 l 2
 658.537109375 546.10546875 644.46875 556.247070312 628.633789062 556.247070312 c 2
 613.486328125 556.247070312 l 2
 598.698242188 556.247070312 585.317382812 547.4140625 579.559570312 533.771484375 c 2
 369.193359375 36.44921875 l 2
 359.869140625 14.365234375 338.2109375 0.03515625 314.262695312 0.03515625 c 2
 176.526367188 0.03515625 l 2
 154.475585938 0.03515625 133.209960938 8.443359375 117.11328125 23.525390625 c 2
 86.490234375 52.1845703125 l 2
 68.921875 68.640625 58.9765625 91.607421875 58.9765625 115.654296875 c 2
 58.9765625 570.18359375 l 2
 58.9765625 589.387695312 65.3564453125 608.1015625 77.1015625 623.314453125 c 2
 111.51953125 667.874023438 l 2
 127.975585938 689.172851562 153.36328125 701.637695312 180.2890625 701.637695312 c 2
 300.489257812 701.637695312 l 2
 322.278320312 701.637695312 339.9453125 683.970703125 339.9453125 662.181640625 c 2
 339.9453125 631.821289062 l 2
 339.9453125 590.075195312 306.116210938 556.24609375 264.370117188 556.24609375 c 2
 215.23046875 556.24609375 l 2
 209.2109375 556.24609375 204.3359375 551.37109375 204.3359375 545.3515625 c 2
 204.3359375 167.803710938 l 2
 204.3359375 155.436523438 214.346679688 145.392578125 226.74609375 145.392578125 c 2
 237.150390625 145.392578125 l 2
 249.418945312 145.392578125 260.54296875 152.75390625 265.319335938 164.07421875 c 2
 479.775390625 671.081054688 l 2
 487.626953125 689.598632812 505.751953125 701.638671875 525.873046875 701.638671875 c 2
 723.807617188 701.638671875 l 2
 745.334960938 701.638671875 764.44140625 687.865234375 771.279296875 667.482421875 c 2
 976.280273438 54.4091796875 l 2
EndSplineSet
Validated: 524321
EndChar

StartChar: O
Encoding: 79 79 49
AltUni2: 0000d8.ffffffff.0 0000d6.ffffffff.0 0000d5.ffffffff.0 0000d4.ffffffff.0 0000d3.ffffffff.0 0000d2.ffffffff.0
Width: 734
Flags: W
LayerCount: 2
Fore
SplineSet
686.465820312 154.2265625 m 2
 695.986328125 124.32421875 688.231445312 91.6396484375 666.278320312 69.228515625 c 2
 618.31640625 20.1865234375 l 2
 605.720703125 7.2958984375 588.479492188 0.033203125 570.453125 0.033203125 c 2
 108.922851562 0.033203125 l 2
 90.9287109375 0.033203125 73.654296875 7.2958984375 61.05859375 20.1865234375 c 2
 13.0966796875 69.228515625 l 2
 -8.8232421875 91.6396484375 -16.609375 124.356445312 -7.0888671875 154.2265625 c 2
 152.043945312 654.427734375 l 2
 160.876953125 682.204101562 186.690429688 701.081054688 215.840820312 701.081054688 c 2
 463.50390625 701.081054688 l 2
 492.654296875 701.081054688 518.467773438 682.204101562 527.30078125 654.427734375 c 2
 686.465820312 154.2265625 l 2
503.514648438 145.392578125 m 2
 519.938476562 145.392578125 531.616210938 161.390625 526.610351562 176.99609375 c 2
 415.571289062 525.94921875 l 2
 409.944335938 543.616210938 393.520507812 555.623046875 374.970703125 555.623046875 c 2
 304.369140625 555.623046875 l 2
 285.819335938 555.623046875 269.395507812 543.616210938 263.768554688 525.94921875 c 2
 152.729492188 176.99609375 l 2
 147.756835938 161.357421875 159.436523438 145.391601562 175.860351562 145.391601562 c 2
 244.466796875 145.391601562 l 2
 256.931640625 145.391601562 267.0078125 155.500976562 267.0078125 167.93359375 c 2
 267.0078125 303.576171875 l 2
 267.0078125 329.487304688 288.01171875 350.491210938 313.922851562 350.491210938 c 2
 365.451171875 350.491210938 l 2
 391.362304688 350.491210938 412.366210938 329.487304688 412.366210938 303.576171875 c 2
 412.366210938 167.93359375 l 2
 412.366210938 155.46875 422.475585938 145.392578125 434.908203125 145.392578125 c 2
 503.514648438 145.392578125 l 2
EndSplineSet
Validated: 524321
EndChar

StartChar: P
Encoding: 80 80 50
Width: 745
Flags: W
LayerCount: 2
Fore
SplineSet
622.795898438 700.03515625 m 2
 653.189453125 700.03515625 677.790039062 675.401367188 677.790039062 645.0078125 c 2
 677.790039062 54.966796875 l 2
 677.790039062 24.6064453125 653.154296875 -0.029296875 622.79296875 -0.029296875 c 2
 121.838867188 -0.029296875 l 2
 91.478515625 -0.029296875 66.8427734375 24.5732421875 66.8427734375 54.966796875 c 2
 66.8427734375 644.974609375 l 2
 66.8427734375 675.334960938 91.478515625 699.970703125 121.83984375 699.970703125 c 2
 260.361328125 699.970703125 l 2
 291.900390625 699.970703125 313.068359375 687.047851562 343.625976562 663.8515625 c 2
 426.82421875 599.204101562 l 2
 445.5703125 584.645507812 435.264648438 554.612304688 411.544921875 554.612304688 c 2
 267.232421875 554.612304688 l 2
 236.872070312 554.612304688 212.236328125 529.9765625 212.236328125 499.615234375 c 2
 212.236328125 172.614257812 l 2
 212.236328125 157.59765625 224.407226562 145.426757812 239.423828125 145.426757812 c 2
 505.211914062 145.426757812 l 2
 520.228515625 145.426757812 532.399414062 157.59765625 532.399414062 172.614257812 c 2
 532.399414062 645.0390625 l 2
 532.399414062 675.399414062 557.03515625 700.03515625 587.396484375 700.03515625 c 2
 622.795898438 700.03515625 l 2
EndSplineSet
Validated: 524321
EndChar

StartChar: Q
Encoding: 81 81 51
Width: 488
Flags: W
LayerCount: 2
Fore
SplineSet
484.115234375 393.383789062 m 2
 493.177734375 372.01953125 477.4765625 348.365234375 454.21484375 348.3984375 c 2
 412.762695312 348.3984375 l 2
 371.8671875 348.3984375 334.897460938 372.870117188 318.96484375 410.559570312 c 2
 266.291015625 535.111328125 l 2
 261.514648438 546.431640625 250.423828125 553.79296875 238.122070312 553.79296875 c 2
 227.717773438 553.79296875 l 2
 215.350585938 553.79296875 205.306640625 543.782226562 205.306640625 531.3828125 c 2
 205.306640625 153.834960938 l 2
 205.306640625 147.815429688 210.181640625 142.940429688 216.201171875 142.940429688 c 2
 265.340820312 142.940429688 l 2
 307.086914062 142.940429688 340.916015625 109.111328125 340.916015625 67.365234375 c 2
 340.916015625 37.0048828125 l 2
 340.916015625 15.2158203125 323.249023438 -2.451171875 301.459960938 -2.451171875 c 2
 181.259765625 -2.451171875 l 2
 154.333984375 -2.451171875 128.913085938 10.046875 112.45703125 31.345703125 c 2
 78.0390625 75.9052734375 l 2
 66.2939453125 91.1181640625 59.9140625 109.798828125 59.9140625 129.036132812 c 2
 59.9140625 583.565429688 l 2
 59.9140625 607.612304688 69.859375 630.579101562 87.427734375 647.03515625 c 2
 118.05078125 675.694335938 l 2
 134.1796875 690.776367188 155.413085938 699.184570312 177.497070312 699.184570312 c 2
 315.233398438 699.184570312 l 2
 339.181640625 699.184570312 360.83984375 684.854492188 370.1640625 662.770507812 c 2
 484.115234375 393.383789062 l 2
EndSplineSet
Validated: 524321
EndChar

StartChar: R
Encoding: 82 82 52
Width: 439
Flags: W
LayerCount: 2
Fore
SplineSet
418.392578125 700.03515625 m 2
 445.0234375 700.03515625 466.618164062 678.443359375 466.618164062 651.8125 c 2
 466.618164062 568.548828125 l 2
 466.618164062 559.159179688 463.870117188 549.965820312 458.701171875 542.114257812 c 2
 131.373046875 43.0576171875 l 2
 113.771484375 16.197265625 83.7705078125 0.0029296875 51.642578125 0.0029296875 c 2
 0.3759765625 0.0029296875 l 2
 -30.181640625 0.0029296875 -48.5029296875 33.9296875 -31.751953125 59.4814453125 c 2
 265.018554688 511.94921875 l 2
 277.05859375 530.270507812 263.90625 554.611328125 241.986328125 554.611328125 c 2
 135.821289062 554.611328125 l 2
 109.190429688 554.611328125 87.59765625 576.204101562 87.59765625 602.834960938 c 2
 87.59765625 651.811523438 l 2
 87.59765625 678.442382812 109.190429688 700.03515625 135.821289062 700.03515625 c 2
 418.392578125 700.03515625 l 2
EndSplineSet
Validated: 524321
EndChar

StartChar: S
Encoding: 83 83 53
Width: 600
Flags: W
LayerCount: 2
Fore
SplineSet
481.028320312 696.73046875 m 2
 508.967773438 696.73046875 531.640625 674.08984375 531.640625 646.150390625 c 2
 531.640625 50.61328125 l 2
 531.640625 22.673828125 509.000976562 0.0341796875 481.061523438 0.0341796875 c 2
 318.362304688 0.0341796875 l 2
 269.974609375 0.0341796875 227.508789062 32.2275390625 214.455078125 78.8154296875 c 2
 52.279296875 657.176757812 l 2
 46.7177734375 677.03515625 61.63671875 696.73046875 82.28125 696.73046875 c 2
 110.3515625 696.73046875 l 2
 158.739257812 696.73046875 201.23828125 664.537109375 214.291992188 617.94921875 c 2
 342.5078125 160.638671875 l 2
 345.059570312 151.641601562 353.23828125 145.42578125 362.594726562 145.42578125 c 2
 365.408203125 145.42578125 l 2
 376.924804688 145.42578125 386.249023438 154.75 386.249023438 166.266601562 c 2
 386.249023438 646.151367188 l 2
 386.249023438 674.090820312 408.888671875 696.73046875 436.828125 696.73046875 c 2
 481.028320312 696.73046875 l 2
EndSplineSet
Validated: 524321
EndChar

StartChar: T
Encoding: 84 84 54
Width: 757
Flags: W
LayerCount: 2
Fore
SplineSet
711.068359375 176.44140625 m 2
 727.361328125 158.250976562 725.790039062 130.342773438 707.665039062 114.049804688 c 2
 624.827148438 39.9140625 l 2
 596.102539062 14.19921875 558.904296875 -0.0322265625 520.33203125 -0.0322265625 c 2
 236.549804688 -0.0322265625 l 2
 198.009765625 -0.0322265625 160.778320312 14.19921875 132.053710938 39.9140625 c 2
 49.2158203125 114.049804688 l 2
 31.025390625 130.309570312 29.4873046875 158.216796875 45.7470703125 176.407226562 c 2
 83.7958984375 218.938476562 l 2
 100.055664062 237.12890625 127.962890625 238.666992188 146.153320312 222.407226562 c 2
 219.666992188 156.647460938 l 2
 227.748046875 149.384765625 238.25 145.393554688 249.112304688 145.393554688 c 2
 280.749023438 145.393554688 l 2
 294.522460938 145.393554688 305.711914062 156.549804688 305.711914062 170.356445312 c 2
 305.711914062 655.834960938 l 2
 305.711914062 680.241210938 325.47265625 700.001953125 349.87890625 700.001953125 c 2
 406.936523438 700.001953125 l 2
 431.342773438 700.001953125 451.103515625 680.241210938 451.103515625 655.834960938 c 2
 451.103515625 170.388671875 l 2
 451.103515625 156.615234375 462.259765625 145.42578125 476.06640625 145.42578125 c 2
 507.703125 145.42578125 l 2
 518.565429688 145.42578125 529.067382812 149.450195312 537.1484375 156.680664062 c 2
 610.662109375 222.440429688 l 2
 628.852539062 238.700195312 656.759765625 237.129882812 673.01953125 218.97265625 c 2
 711.068359375 176.44140625 l 2
EndSplineSet
Validated: 524321
EndChar

StartChar: U
Encoding: 85 85 55
AltUni2: 0000dc.ffffffff.0 0000db.ffffffff.0 0000da.ffffffff.0 0000d9.ffffffff.0
Width: 745
Flags: W
LayerCount: 2
Fore
SplineSet
622.795898438 700.03515625 m 2
 653.15625 700.03515625 677.793945312 675.400390625 677.793945312 645.006835938 c 2
 677.793945312 54.9990234375 l 2
 677.793945312 24.638671875 653.158203125 0.0029296875 622.796875 0.0029296875 c 2
 121.842773438 0.0029296875 l 2
 91.482421875 0.0029296875 66.8466796875 24.60546875 66.8466796875 54.9990234375 c 2
 66.8466796875 645.006835938 l 2
 66.8466796875 675.3671875 91.44921875 700.002929688 121.842773438 700.002929688 c 2
 157.2421875 700.002929688 l 2
 187.602539062 700.002929688 212.23828125 675.3671875 212.23828125 645.006835938 c 2
 212.23828125 172.6796875 l 2
 212.23828125 157.663085938 224.409179688 145.4921875 239.42578125 145.4921875 c 2
 505.213867188 145.4921875 l 2
 520.23046875 145.4921875 532.401367188 157.663085938 532.401367188 172.6796875 c 2
 532.401367188 499.680664062 l 2
 532.401367188 530.041015625 507.765625 554.676757812 477.404296875 554.676757812 c 2
 333.091796875 554.676757812 l 2
 309.372070312 554.676757812 299.06640625 584.709960938 317.8125 599.268554688 c 2
 401.010742188 663.916015625 l 2
 431.53515625 687.112304688 452.703125 700.03515625 484.274414062 700.03515625 c 2
 622.795898438 700.03515625 l 2
EndSplineSet
Validated: 524321
EndChar

StartChar: V
Encoding: 86 86 56
Width: 974
Flags: W
LayerCount: 2
Fore
SplineSet
919.379882812 698.366210938 m 2
 943.06640625 698.366210938 954.224609375 669.151367188 936.525390625 653.381835938 c 2
 738.100585938 476.091796875 l 2
 711.698242188 452.502929688 677.509765625 439.44921875 642.078125 439.44921875 c 2
 589.110351562 439.44921875 l 2
 577.462890625 439.44921875 568.0078125 429.994140625 568.0078125 418.346679688 c 2
 568.0078125 42.8603515625 l 2
 568.0078125 18.2900390625 548.083984375 -1.6337890625 523.513671875 -1.6337890625 c 2
 467.110351562 -1.6337890625 l 2
 442.540039062 -1.6337890625 422.616210938 18.2900390625 422.616210938 42.8603515625 c 2
 422.616210938 418.314453125 l 2
 422.616210938 429.961914062 413.161132812 439.416992188 401.513671875 439.416992188 c 2
 348.873046875 439.416992188 l 2
 313.44140625 439.416992188 279.252929688 452.470703125 252.850585938 476.059570312 c 2
 54.42578125 653.349609375 l 2
 36.7587890625 669.119140625 47.9150390625 698.3671875 71.6015625 698.3671875 c 2
 169.783203125 698.3671875 l 2
 203.775390625 698.3671875 236.557617188 685.836914062 261.879882812 663.1640625 c 2
 327.57421875 604.405273438 l 2
 341.674804688 591.776367188 359.930664062 584.807617188 378.873046875 584.807617188 c 2
 612.108398438 584.807617188 l 2
 631.018554688 584.807617188 649.306640625 591.776367188 663.407226562 604.405273438 c 2
 729.1015625 663.196289062 l 2
 754.423828125 685.8359375 787.206054688 698.366210938 821.198242188 698.366210938 c 2
 919.379882812 698.366210938 l 2
EndSplineSet
Validated: 524321
EndChar

StartChar: W
Encoding: 87 87 57
Width: 795
Flags: W
LayerCount: 2
Fore
SplineSet
264.454101562 554.4140625 m 2
 235.598632812 554.4140625 215.611328125 525.559570312 225.786132812 498.502929688 c 2
 340.45703125 193.389648438 l 2
 351.286132812 164.500976562 378.8984375 145.39453125 409.75 145.39453125 c 0
 434.810546875 145.39453125 455.16015625 125.077148438 455.16015625 99.9833984375 c 2
 455.16015625 45.4453125 l 2
 455.16015625 20.384765625 434.842773438 0.03515625 409.749023438 0.03515625 c 2
 329.659179688 0.03515625 l 2
 286.440429688 0.03515625 247.737304688 26.830078125 232.524414062 67.30078125 c 2
 54.154296875 541.852539062 l 2
 50.8828125 550.5546875 49.2138671875 559.748046875 49.2138671875 569.0390625 c 2
 49.2138671875 612.813476562 l 2
 49.2138671875 660.840820312 88.146484375 699.805664062 136.20703125 699.805664062 c 2
 366.137695312 699.805664062 l 2
 415.310546875 699.805664062 455.159179688 659.95703125 455.159179688 610.784179688 c 0
 455.159179688 579.670898438 429.934570312 554.4140625 398.788085938 554.4140625 c 2
 264.454101562 554.4140625 l 2
706.684570312 699.806640625 m 2
 739.499023438 699.806640625 766.09765625 673.209960938 766.065429688 640.395507812 c 2
 766.065429688 280.44921875 l 2
 766.065429688 255.813476562 746.076171875 235.82421875 721.440429688 235.82421875 c 2
 659.76953125 236.34765625 l 2
 634.708984375 236.543945312 610.760742188 246.587890625 593.028320312 264.3203125 c 2
 523.047851562 334.30078125 l 2
 510.255859375 347.092773438 503.05859375 364.432617188 503.05859375 382.524414062 c 2
 503.05859375 398.817382812 l 2
 503.05859375 426.102539062 525.174804688 448.21875 552.459960938 448.21875 c 0
 606.932617188 448.21875 615.9296875 445.208984375 620.673828125 492.451171875 c 1
 620.673828125 508.220703125 l 2
 621.06640625 531.383789062 608.241210938 537.436523438 594.336914062 545.811523438 c 2
 584.881835938 552.223632812 l 2
 570.486328125 561.97265625 561.881835938 578.200195312 561.881835938 595.572265625 c 2
 561.881835938 640.393554688 l 2
 561.881835938 673.208007812 588.48046875 699.806640625 621.294921875 699.806640625 c 2
 706.684570312 699.806640625 l 2
EndSplineSet
Validated: 524321
EndChar

StartChar: X
Encoding: 88 88 58
Width: 651
Flags: W
LayerCount: 2
Fore
SplineSet
596.94921875 61.9990234375 m 2
 604.866210938 30.525390625 581.049804688 -0 548.693359375 0.0322265625 c 2
 501.810546875 0.0322265625 l 2
 479.040039062 0.0322265625 459.1484375 15.474609375 453.521484375 37.525390625 c 2
 337.934570312 489.764648438 l 2
 335.775390625 498.107421875 328.905273438 502.393554688 321.87109375 502.688476562 c 0
 314.836914062 502.426757812 307.93359375 498.140625 305.806640625 489.765625 c 2
 190.219726562 37.5263671875 l 2
 184.559570312 15.4755859375 164.701171875 0.033203125 141.930664062 0.033203125 c 2
 95.0478515625 0.033203125 l 2
 62.6259765625 0.033203125 38.80859375 30.525390625 46.7255859375 61.9990234375 c 2
 196.73046875 659.041015625 l 2
 202.291992188 681.190429688 222.215820312 696.73046875 245.051757812 696.73046875 c 2
 398.623046875 696.73046875 l 2
 421.458984375 696.73046875 441.3828125 681.190429688 446.944335938 659.041015625 c 2
 596.94921875 61.9990234375 l 2
EndSplineSet
Validated: 524321
EndChar

StartChar: Y
Encoding: 89 89 59
AltUni2: 000178.ffffffff.0 0000dd.ffffffff.0
Width: 604
Flags: W
LayerCount: 2
Fore
SplineSet
550.173828125 59.4794921875 m 2
 566.924804688 33.927734375 548.604492188 0 518.046875 0.033203125 c 2
 466.780273438 0.033203125 l 2
 434.65234375 0.033203125 404.684570312 16.2275390625 387.05078125 43.087890625 c 2
 59.72265625 542.14453125 l 2
 54.5859375 549.99609375 51.837890625 559.189453125 51.837890625 568.579101562 c 2
 51.837890625 651.809570312 l 2
 51.837890625 678.440429688 73.4306640625 700.033203125 100.061523438 700.033203125 c 2
 382.600585938 700.033203125 l 2
 409.231445312 700.033203125 430.82421875 678.440429688 430.82421875 651.809570312 c 2
 430.82421875 602.833007812 l 2
 430.82421875 576.202148438 409.231445312 554.609375 382.600585938 554.609375 c 2
 276.435546875 554.609375 l 2
 254.515625 554.609375 241.396484375 530.268554688 253.403320312 511.947265625 c 2
 550.173828125 59.4794921875 l 2
EndSplineSet
Validated: 524321
EndChar

StartChar: Z
Encoding: 90 90 60
Width: 861
Flags: W
LayerCount: 2
Fore
SplineSet
761.369140625 699.87109375 m 2
 793.594726562 699.87109375 819.73828125 673.763671875 819.770507812 641.504882812 c 2
 819.770507812 237.686523438 l 2
 819.770507812 205.395507812 806.029296875 174.609375 781.950195312 153.08203125 c 2
 643.7890625 29.4462890625 l 2
 622.686523438 10.5693359375 595.368164062 0.1328125 567.068359375 0.1328125 c 2
 251.2890625 0.1328125 l 2
 222.989257812 0.1328125 195.670898438 10.5693359375 174.568359375 29.4462890625 c 2
 -10.5087890625 195.056640625 l 2
 -32.8544921875 215.045898438 -18.720703125 252.081054688 11.2802734375 252.081054688 c 2
 51.0634765625 252.081054688 l 2
 110.8359375 252.081054688 168.482421875 230.030273438 213.041992188 190.181640625 c 2
 246.020507812 160.671875 l 2
 256.8828125 150.922851562 270.983398438 145.557617188 285.575195312 145.557617188 c 2
 518.188476562 145.557617188 l 2
 542.13671875 145.557617188 565.234375 154.390625 583.09765625 170.356445312 c 2
 654.844726562 234.545898438 l 2
 667.211914062 245.63671875 674.278320312 261.438476562 674.278320312 278.05859375 c 2
 674.278320312 641.504882812 l 2
 674.278320312 673.73046875 700.418945312 699.87109375 732.64453125 699.87109375 c 2
 761.369140625 699.87109375 l 2
262.15234375 287.938476562 m 2
 234.311523438 312.999023438 l 2
 208.432617188 336.358398438 215.401367188 378.627929688 247.3984375 392.434570312 c 2
 512.466796875 506.712890625 l 2
 539.458007812 518.327148438 569.556640625 498.534179688 569.556640625 469.155273438 c 2
 569.556640625 463.953125 l 2
 569.556640625 408.6953125 536.708984375 358.737304688 485.965820312 336.8828125 c 2
 341.8828125 274.787109375 l 2
 315.022460938 263.205078125 283.875976562 268.341796875 262.15234375 287.938476562 c 2
EndSplineSet
Validated: 524321
EndChar

StartChar: bracketleft
Encoding: 91 91 61
Width: 386
Flags: W
LayerCount: 2
Fore
SplineSet
268.512695312 703.337890625 m 2
 305.97265625 703.337890625 336.333984375 672.977539062 336.333984375 635.517578125 c 2
 336.333984375 592.004882812 l 2
 336.333984375 491.434570312 254.8046875 409.9375 154.267578125 409.9375 c 2
 117.821289062 409.9375 l 2
 80.361328125 409.9375 50 440.297851562 50 477.7578125 c 2
 50 496.864257812 l 2
 50 534.32421875 80.361328125 564.685546875 117.821289062 564.685546875 c 0
 155.28125 564.685546875 185.642578125 595.046875 185.642578125 632.506835938 c 2
 185.642578125 635.516601562 l 2
 185.642578125 672.9765625 216.002929688 703.337890625 253.462890625 703.337890625 c 2
 268.512695312 703.337890625 l 2
336.333984375 67.8212890625 m 2
 336.333984375 30.361328125 305.973632812 0.001953125 268.513671875 0.001953125 c 2
 253.463867188 0.001953125 l 2
 216.00390625 0.001953125 185.642578125 30.36328125 185.642578125 67.8232421875 c 2
 185.642578125 70.8330078125 l 2
 185.642578125 108.29296875 155.28125 138.654296875 117.821289062 138.654296875 c 0
 80.361328125 138.654296875 50 169.014648438 50 206.474609375 c 2
 50 225.547851562 l 2
 50 263.0078125 80.3603515625 293.368164062 117.8203125 293.368164062 c 2
 154.266601562 293.368164062 l 2
 254.836914062 293.368164062 336.333984375 211.838867188 336.333984375 111.301757812 c 2
 336.333984375 67.8212890625 l 2
EndSplineSet
Validated: 524289
EndChar

StartChar: bracketright
Encoding: 93 93 62
Width: 386
Flags: W
LayerCount: 2
Fore
SplineSet
268.545898438 564.685546875 m 0
 306.005859375 564.685546875 336.365234375 534.325195312 336.365234375 496.865234375 c 2
 336.365234375 477.758789062 l 2
 336.365234375 440.298828125 306.004882812 409.9375 268.544921875 409.9375 c 2
 232.06640625 409.9375 l 2
 131.529296875 409.9375 50 491.466796875 50 592.00390625 c 2
 50 635.516601562 l 2
 50 672.9765625 80.361328125 703.337890625 117.821289062 703.337890625 c 2
 132.903320312 703.337890625 l 2
 170.36328125 703.337890625 200.724609375 672.9765625 200.724609375 635.516601562 c 2
 200.724609375 632.506835938 l 2
 200.724609375 595.046875 231.0859375 564.685546875 268.545898438 564.685546875 c 0
336.365234375 206.473632812 m 2
 336.365234375 169.013671875 306.00390625 138.650390625 268.543945312 138.650390625 c 0
 231.083984375 138.650390625 200.72265625 108.2890625 200.72265625 70.8291015625 c 2
 200.72265625 67.8193359375 l 2
 200.72265625 30.359375 170.361328125 -0.001953125 132.901367188 -0.001953125 c 2
 117.819335938 -0.001953125 l 2
 80.359375 -0.001953125 49.9990234375 30.359375 49.9990234375 67.8193359375 c 2
 49.9990234375 111.299804688 l 2
 49.9990234375 211.870117188 131.528320312 293.3671875 232.065429688 293.3671875 c 2
 268.543945312 293.3671875 l 2
 306.00390625 293.3671875 336.365234375 263.006835938 336.365234375 225.546875 c 2
 336.365234375 206.473632812 l 2
EndSplineSet
Validated: 524289
EndChar

StartChar: asciicircum
Encoding: 94 94 63
Width: 381
Flags: W
LayerCount: 2
Fore
SplineSet
291.15234375 577.592773438 m 0
 313.3671875 577.592773438 331.360351562 559.598632812 331.360351562 537.383789062 c 0
 331.360351562 492.987304688 295.372070312 456.999023438 250.975585938 456.999023438 c 2
 130.3828125 456.999023438 l 2
 85.986328125 456.999023438 49.998046875 492.987304688 49.998046875 537.383789062 c 0
 49.998046875 559.565429688 67.9921875 577.559570312 90.173828125 577.559570312 c 0
 112.35546875 577.559570312 130.349609375 595.553710938 130.349609375 617.735351562 c 2
 130.349609375 678.064453125 l 2
 130.3828125 711.370117188 157.374023438 738.361328125 190.6796875 738.361328125 c 0
 223.985351562 738.361328125 250.9765625 711.370117188 250.9765625 678.064453125 c 2
 250.9765625 617.768554688 l 2
 250.9765625 595.586914062 268.970703125 577.592773438 291.15234375 577.592773438 c 0
EndSplineSet
Validated: 524289
EndChar

StartChar: underscore
Encoding: 95 95 64
Width: 627
Flags: W
LayerCount: 2
Fore
SplineSet
577.487304688 41.255859375 m 0
 577.520507812 18.4853515625 559.03515625 0 536.264648438 0 c 2
 163.494140625 0 l 2
 100.809570312 0 50.0009765625 50.841796875 50.0009765625 113.526367188 c 0
 50.0009765625 136.296875 68.453125 154.749023438 91.2236328125 154.749023438 c 2
 463.994140625 154.749023438 l 2
 526.678710938 154.749023438 577.487304688 103.940429688 577.487304688 41.255859375 c 0
EndSplineSet
Validated: 524321
EndChar

StartChar: a
Encoding: 97 97 65
AltUni2: 0000e5.ffffffff.0 0000e4.ffffffff.0 0000e3.ffffffff.0 0000e2.ffffffff.0 0000e1.ffffffff.0 0000e0.ffffffff.0
Width: 820
Flags: W
LayerCount: 2
Fore
SplineSet
717.772460938 700.001953125 m 2
 737.40234375 700.001953125 753.301757812 684.102539062 753.301757812 664.505859375 c 2
 753.301757812 440.66015625 l 2
 753.301757812 421.030273438 737.401367188 405.129882812 717.771484375 405.129882812 c 2
 449.529296875 405.129882812 l 2
 429.342773438 405.129882812 409.680664062 411.541992188 393.35546875 423.41796875 c 2
 52.77734375 671.27734375 l 2
 40.3779296875 680.33984375 46.7578125 700.001953125 62.134765625 700.001953125 c 2
 218.715820312 700.001953125 l 2
 245.8046875 700.001953125 272.20703125 691.430664062 294.126953125 675.498046875 c 2
 451.525390625 560.859375 l 2
 460.750976562 554.15234375 471.875 550.520507812 483.29296875 550.520507812 c 2
 578.498046875 550.520507812 l 2
 594.7578125 550.520507812 607.91015625 563.705078125 607.91015625 579.932617188 c 2
 607.91015625 664.471679688 l 2
 607.91015625 684.1015625 623.810546875 700.001953125 643.440429688 700.001953125 c 2
 717.772460938 700.001953125 l 2
717.771484375 294.875 m 2
 737.401367188 294.875 753.303710938 278.9765625 753.369140625 259.346679688 c 2
 753.369140625 35.533203125 l 2
 753.369140625 15.9033203125 737.46875 0.0029296875 717.838867188 0.0029296875 c 2
 643.506835938 0.0029296875 l 2
 623.876953125 0.0029296875 607.9765625 15.9033203125 607.9765625 35.533203125 c 2
 607.9765625 120.072265625 l 2
 607.9765625 136.33203125 594.82421875 149.484375 578.564453125 149.484375 c 2
 483.359375 149.484375 l 2
 471.94140625 149.484375 460.817382812 145.852539062 451.591796875 139.145507812 c 2
 294.16015625 24.5400390625 l 2
 272.240234375 8.607421875 245.837890625 0.0029296875 218.749023438 0.0029296875 c 2
 62.16796875 0.0029296875 l 2
 46.791015625 0.0029296875 40.37890625 19.6982421875 52.8115234375 28.7275390625 c 2
 393.356445312 276.586914062 l 2
 409.681640625 288.462890625 429.34375 294.875 449.529296875 294.875 c 2
 717.771484375 294.875 l 2
EndSplineSet
Validated: 524289
EndChar

StartChar: b
Encoding: 98 98 66
Width: 815
Flags: W
LayerCount: 2
Fore
SplineSet
329.71484375 421.094726562 m 2
 486.55859375 421.095703125 l 2
 515.447265625 421.095703125 538.83984375 397.703125 538.83984375 368.814453125 c 2
 538.83984375 327.984375 l 2
 538.83984375 299.095703125 515.447265625 275.703125 486.55859375 275.703125 c 2
 329.715820312 275.703125 l 2
 300.827148438 275.703125 277.434570312 299.127929688 277.434570312 327.983398438 c 2
 277.434570312 368.813476562 l 2
 277.434570312 397.702148438 300.859375 421.094726562 329.71484375 421.094726562 c 2
54.341796875 495.787109375 m 2
 33.7958984375 495.787109375 25.384765625 522.223632812 42.16796875 534.099609375 c 2
 245.697265625 678.084960938 l 2
 265.883789062 692.381835938 289.99609375 700.037109375 314.729492188 700.037109375 c 2
 501.5078125 700.037109375 l 2
 526.241210938 700.037109375 550.353515625 692.348632812 570.540039062 678.083984375 c 2
 774.134765625 534.06640625 l 2
 790.91796875 522.22265625 782.509765625 495.788085938 761.963867188 495.788085938 c 2
 611.926757812 495.788085938 l 2
 588.89453125 495.788085938 566.385742188 502.919921875 547.57421875 516.235351562 c 2
 516.72265625 538.057617188 l 2
 501.509765625 548.821289062 483.352539062 554.612304688 464.704101562 554.612304688 c 2
 351.603515625 554.612304688 l 2
 332.955078125 554.612304688 314.764648438 548.854492188 299.583984375 538.057617188 c 2
 268.732421875 516.235351562 l 2
 249.920898438 502.952148438 227.444335938 495.787109375 204.37890625 495.787109375 c 2
 54.341796875 495.787109375 l 2
761.896484375 204.220703125 m 2
 782.475585938 204.220703125 790.853515625 177.81640625 774.0703125 165.940429688 c 2
 570.541015625 21.955078125 l 2
 550.354492188 7.658203125 526.2421875 0.0029296875 501.508789062 0.0029296875 c 2
 314.73046875 0.0029296875 l 2
 289.997070312 0.0029296875 265.884765625 7.69140625 245.69921875 21.9560546875 c 2
 42.169921875 165.94140625 l 2
 25.38671875 177.78515625 33.794921875 204.219726562 54.3408203125 204.219726562 c 2
 204.377929688 204.219726562 l 2
 227.41015625 204.219726562 249.918945312 197.087890625 268.73046875 183.772460938 c 2
 299.58203125 161.950195312 l 2
 314.794921875 151.186523438 332.952148438 145.395507812 351.600585938 145.395507812 c 2
 464.635742188 145.395507812 l 2
 483.250976562 145.395507812 501.44140625 151.186523438 516.654296875 161.950195312 c 2
 547.505859375 183.772460938 l 2
 566.317382812 197.055664062 588.793945312 204.220703125 611.859375 204.220703125 c 2
 761.896484375 204.220703125 l 2
EndSplineSet
Validated: 524321
EndChar

StartChar: c
Encoding: 99 99 67
AltUni2: 0000e7.ffffffff.0
Width: 565
Flags: W
LayerCount: 2
Fore
SplineSet
446.282226562 614.677734375 m 2
 474.909179688 614.677734375 498.104492188 591.479492188 498.0390625 562.852539062 c 2
 498.0390625 51.822265625 l 2
 498.0390625 23.1953125 474.842773438 -0.0009765625 446.215820312 -0.0009765625 c 2
 404.436523438 -0.0009765625 l 2
 375.842773438 -0.0009765625 352.646484375 23.1953125 352.646484375 51.822265625 c 2
 352.646484375 336.32421875 l 2
 352.646484375 350.196289062 341.391601562 361.451171875 327.51953125 361.451171875 c 2
 142.24609375 361.451171875 l 2
 96.017578125 361.451171875 58.5576171875 398.911132812 58.5576171875 445.139648438 c 2
 58.5576171875 648.2109375 l 2
 58.5576171875 676.837890625 81.75390625 700.034179688 110.380859375 700.034179688 c 2
 152.16015625 700.034179688 l 2
 180.787109375 700.034179688 203.983398438 676.837890625 203.983398438 648.2109375 c 2
 203.983398438 529.548828125 l 2
 203.983398438 516.985351562 214.158203125 506.810546875 226.721679688 506.810546875 c 2
 329.974609375 506.810546875 l 2
 342.538085938 506.810546875 352.712890625 516.985351562 352.712890625 529.548828125 c 2
 352.712890625 562.854492188 l 2
 352.712890625 591.481445312 375.875976562 614.677734375 404.502929688 614.677734375 c 2
 446.282226562 614.677734375 l 2
EndSplineSet
Validated: 524321
EndChar

StartChar: d
Encoding: 100 100 68
Width: 482
Flags: W
LayerCount: 2
Fore
SplineSet
470.8125 643.56640625 m 2
 500.35546875 611.275390625 508.399414062 564.78515625 491.419921875 524.413085938 c 2
 289.723632812 44.5615234375 l 2
 278.37109375 17.5380859375 251.936523438 -0.0302734375 222.623046875 -0.0302734375 c 2
 170.11328125 -0.0302734375 l 2
 143.122070312 -0.0302734375 124.833984375 27.484375 135.303710938 52.3818359375 c 2
 209.766601562 229.508789062 l 2
 215.623046875 243.478515625 205.349609375 258.920898438 190.202148438 258.920898438 c 2
 131.21484375 258.920898438 l 2
 105.434570312 258.920898438 84.5283203125 279.827148438 84.5283203125 305.607421875 c 2
 84.5283203125 330.340820312 l 2
 84.5283203125 371.204101562 117.669921875 404.345703125 158.533203125 404.345703125 c 2
 252.233398438 404.345703125 l 2
 271.012695312 404.345703125 287.959960938 415.6328125 295.255859375 432.939453125 c 2
 325.911132812 505.864257812 l 2
 335.66015625 529.02734375 318.647460938 554.611328125 293.521484375 554.611328125 c 2
 222.036132812 554.611328125 l 2
 213.268554688 554.611328125 205.155273438 549.8671875 200.90234375 542.178710938 c 2
 182.6796875 509.396484375 l 2
 174.435546875 494.608398438 158.830078125 485.415039062 141.8828125 485.415039062 c 2
 87.8349609375 485.415039062 l 2
 49.7861328125 485.415039062 25.7392578125 526.278320312 44.2236328125 559.518554688 c 2
 108.936523438 676.021484375 l 2
 117.180664062 690.841796875 132.786132812 700.03515625 149.733398438 700.03515625 c 2
 398.607421875 700.03515625 l 2
 411.694335938 700.03515625 424.192382812 694.505859375 433.025390625 684.854492188 c 2
 470.8125 643.56640625 l 2
EndSplineSet
Validated: 524321
EndChar

StartChar: e
Encoding: 101 101 69
AltUni2: 0000eb.ffffffff.0 0000ea.ffffffff.0 0000e9.ffffffff.0 0000e8.ffffffff.0
Width: 879
Flags: W
LayerCount: 2
Fore
SplineSet
853.088867188 696.141601562 m 2
 880.635742188 696.141601562 902.947265625 673.829101562 902.881835938 646.314453125 c 2
 902.881835938 601.263671875 l 2
 902.881835938 573.749023438 880.569335938 551.436523438 853.0546875 551.436523438 c 2
 792.955078125 551.436523438 l 2
 781.798828125 551.436523438 772.76953125 542.407226562 772.76953125 531.250976562 c 2
 772.76953125 49.861328125 l 2
 772.76953125 22.3466796875 750.45703125 0.0341796875 722.942382812 0.0341796875 c 2
 677.891601562 0.0341796875 l 2
 650.376953125 0.0341796875 628.064453125 22.3466796875 628.064453125 49.861328125 c 2
 628.064453125 532.428710938 l 2
 628.064453125 542.930664062 619.55859375 551.436523438 609.056640625 551.436523438 c 2
 607.780273438 551.436523438 l 2
 599.274414062 551.436523438 591.815429688 545.776367188 589.4921875 537.59765625 c 2
 447.666015625 36.2841796875 l 2
 441.581054688 14.822265625 422.016601562 0.001953125 399.704101562 0.001953125 c 2
 251.302734375 0.001953125 l 2
 228.466796875 0.001953125 208.54296875 15.5419921875 202.981445312 37.69140625 c 2
 52.9765625 634.733398438 l 2
 45.0595703125 666.173828125 68.8447265625 696.698242188 101.299804688 696.698242188 c 2
 148.182617188 696.698242188 l 2
 170.953125 696.698242188 190.844726562 681.255859375 196.471679688 659.205078125 c 2
 312.05859375 206.965820312 l 2
 316.442382812 189.85546875 340.65234375 189.528320312 345.461914062 206.541015625 c 2
 473.709960938 659.859375 l 2
 479.794921875 681.321289062 499.359375 696.141601562 521.671875 696.141601562 c 2
 853.088867188 696.141601562 l 2
EndSplineSet
Validated: 524321
EndChar

StartChar: f
Encoding: 102 102 70
Width: 766
Flags: W
LayerCount: 2
Fore
SplineSet
677.890625 214.62109375 m 2
 715.907226562 214.62109375 739.95703125 173.7578125 721.538085938 140.55078125 c 2
 656.825195312 24.0478515625 l 2
 648.581054688 9.2275390625 632.975585938 0.0341796875 616.028320312 0.0341796875 c 2
 367.154296875 0.0341796875 l 2
 354.067382812 0.0341796875 341.569335938 5.5634765625 332.736328125 15.21484375 c 2
 294.94921875 56.5029296875 l 2
 265.40625 88.76171875 257.358398438 135.284179688 274.305664062 175.590820312 c 2
 476.001953125 655.442382812 l 2
 487.354492188 682.465820312 513.7890625 700.034179688 543.102539062 700.034179688 c 2
 595.612304688 700.034179688 l 2
 622.603515625 700.034179688 640.891601562 672.51953125 630.421875 647.622070312 c 2
 555.958984375 470.495117188 l 2
 550.102539062 456.525390625 560.375976562 441.083007812 575.5234375 441.083007812 c 2
 634.510742188 441.083007812 l 2
 660.291015625 441.083007812 681.197265625 420.176757812 681.197265625 394.396484375 c 2
 681.197265625 369.6953125 l 2
 681.197265625 328.83203125 648.055664062 295.690429688 607.192382812 295.690429688 c 2
 513.4921875 295.690429688 l 2
 494.712890625 295.690429688 477.765625 284.403320312 470.469726562 267.096679688 c 2
 439.814453125 194.171875 l 2
 430.065429688 171.008789062 447.078125 145.424804688 472.204101562 145.424804688 c 2
 543.689453125 145.424804688 l 2
 552.45703125 145.424804688 560.5703125 150.168945312 564.823242188 157.857421875 c 2
 583.045898438 190.639648438 l 2
 591.290039062 205.427734375 606.895507812 214.62109375 623.842773438 214.62109375 c 2
 677.890625 214.62109375 l 2
235.6328125 441.051757812 m 2
 258.795898438 441.051757812 274.435546875 417.462890625 265.438476562 396.131835938 c 2
 128.16015625 71.748046875 l 2
 109.741210938 28.267578125 67.111328125 0.0009765625 19.9013671875 0.0009765625 c 2
 -11.146484375 0.0009765625 l 2
 -34.27734375 0.0009765625 -49.9482421875 23.6220703125 -40.9189453125 44.9208984375 c 2
 96.326171875 369.3046875 l 2
 114.745117188 412.78515625 157.375 441.051757812 204.584960938 441.051757812 c 2
 235.6328125 441.051757812 l 2
EndSplineSet
Validated: 524321
EndChar

StartChar: g
Encoding: 103 103 71
Width: 733
Flags: W
LayerCount: 2
Fore
SplineSet
717.793945312 633.71875 m 2
 749.299804688 602.572265625 758.428710938 555.298828125 740.794921875 514.665039062 c 2
 535.826171875 43.6796875 l 2
 524.27734375 17.146484375 498.104492188 0.0029296875 469.18359375 0.0029296875 c 2
 288.1640625 0.0029296875 l 2
 247.98828125 0.0029296875 212.916015625 27.1572265625 202.806640625 66.0244140625 c 2
 53.29296875 641.27734375 l 2
 45.572265625 671.016601562 68.015625 700.036132812 98.736328125 700.036132812 c 2
 116.958984375 700.036132812 l 2
 159 700.036132812 195.740234375 671.60546875 206.307617188 630.938476562 c 2
 324.119140625 177.620117188 l 2
 329.026367188 158.709960938 346.104492188 145.4921875 365.668945312 145.4921875 c 2
 393.314453125 145.4921875 l 2
 410.424804688 145.4921875 425.899414062 155.634765625 432.704101562 171.305664062 c 2
 581.694335938 514.271484375 l 2
 589.775390625 532.821289062 576.198242188 553.53125 555.979492188 553.53125 c 2
 542.958007812 553.53125 l 2
 533.4375 553.53125 524.767578125 548.1328125 520.580078125 539.59375 c 2
 494.734375 486.854492188 l 2
 488.943359375 475.043945312 476.936523438 467.551757812 463.784179688 467.551757812 c 2
 407.380859375 467.551757812 l 2
 368.546875 467.551757812 343.19140625 508.250976562 360.26953125 543.09375 c 2
 411.078125 646.739257812 l 2
 426.749023438 678.703125 459.26953125 698.987304688 494.897460938 698.987304688 c 2
 630.932617188 698.987304688 l 2
 644.248046875 698.987304688 657.040039062 693.719726562 666.52734375 684.36328125 c 2
 717.793945312 633.71875 l 2
EndSplineSet
Validated: 524321
EndChar

StartChar: h
Encoding: 104 104 72
Width: 692
Flags: W
LayerCount: 2
Fore
SplineSet
589.885742188 700.001953125 m 2
 617.301757812 700.001953125 639.548828125 677.787109375 639.58203125 650.337890625 c 2
 639.58203125 604.2734375 l 2
 639.58203125 576.82421875 617.334960938 554.577148438 589.885742188 554.577148438 c 2
 101.134765625 554.577148438 l 2
 73.685546875 554.577148438 51.4384765625 576.82421875 51.4384765625 604.2734375 c 2
 51.4384765625 650.305664062 l 2
 51.4384765625 677.754882812 73.685546875 700.001953125 101.134765625 700.001953125 c 2
 589.885742188 700.001953125 l 2
426.532226562 277.305664062 m 2
 264.520507812 277.305664062 l 2
 237.071289062 277.305664062 214.82421875 299.552734375 214.82421875 327.001953125 c 2
 214.82421875 373.034179688 l 2
 214.82421875 400.483398438 237.071289062 422.73046875 264.520507812 422.73046875 c 2
 426.532226562 422.73046875 l 2
 453.981445312 422.73046875 476.228515625 400.483398438 476.228515625 373.034179688 c 2
 476.228515625 327.001953125 l 2
 476.228515625 299.552734375 453.981445312 277.305664062 426.532226562 277.305664062 c 2
589.885742188 145.392578125 m 2
 617.301757812 145.392578125 639.548828125 123.177734375 639.58203125 95.728515625 c 2
 639.58203125 49.6640625 l 2
 639.58203125 22.21484375 617.334960938 -0.0322265625 589.885742188 -0.0322265625 c 2
 101.134765625 -0.0322265625 l 2
 73.685546875 -0.0322265625 51.4384765625 22.21484375 51.4384765625 49.6640625 c 2
 51.4384765625 95.6962890625 l 2
 51.4384765625 123.145507812 73.685546875 145.392578125 101.134765625 145.392578125 c 2
 589.885742188 145.392578125 l 2
EndSplineSet
Validated: 524289
EndChar

StartChar: i
Encoding: 105 105 73
AltUni2: 0000ef.ffffffff.0 0000ee.ffffffff.0 0000ed.ffffffff.0 0000ec.ffffffff.0
Width: 367
Flags: W
LayerCount: 2
Fore
SplineSet
256.249023438 700.03515625 m 2
 280.884765625 700.03515625 300.875 680.045898438 300.907226562 655.377929688 c 2
 300.907226562 59.416015625 l 2
 300.907226562 26.6015625 274.30859375 0.0029296875 241.494140625 0.0029296875 c 2
 156.104492188 0.0029296875 l 2
 123.290039062 0.0029296875 96.69140625 26.6015625 96.69140625 59.416015625 c 2
 96.69140625 117.618164062 l 2
 96.69140625 134.990234375 105.295898438 151.217773438 119.69140625 160.966796875 c 2
 129.146484375 167.37890625 l 2
 145.602539062 178.53515625 155.482421875 197.118164062 155.482421875 217.009765625 c 2
 155.482421875 419.426757812 l 2
 155.482421875 457.083007812 124.958007812 487.640625 87.2685546875 487.640625 c 0
 59.9833984375 487.640625 37.8671875 509.756835938 37.8671875 537.041992188 c 2
 37.8671875 553.334960938 l 2
 37.8671875 571.426757812 45.064453125 588.766601562 57.8564453125 601.55859375 c 2
 127.836914062 671.5390625 l 2
 145.536132812 689.23828125 169.517578125 699.315429688 194.578125 699.51171875 c 2
 256.249023438 700.03515625 l 2
EndSplineSet
Validated: 524289
EndChar

StartChar: j
Encoding: 106 106 74
Width: 563
Flags: W
LayerCount: 2
Fore
SplineSet
577.198242188 653.969726562 m 2
 595.944335938 627.731445312 598.7578125 593.279296875 584.526367188 564.358398438 c 2
 336.110351562 60.001953125 l 2
 317.985351562 23.26171875 280.623046875 0 239.662109375 0 c 2
 109.712890625 0 l 2
 78.2724609375 0 52.75390625 25.486328125 52.75390625 56.9599609375 c 2
 52.75390625 96.12109375 l 2
 52.75390625 123.340820312 74.8046875 145.391601562 102.024414062 145.391601562 c 2
 172.0703125 145.391601562 l 2
 199.028320312 145.391601562 223.6640625 160.703125 235.573242188 184.880859375 c 2
 393.953125 506.483398438 l 2
 404.880859375 528.665039062 388.751953125 554.609375 364.018554688 554.609375 c 2
 94.140625 554.609375 l 2
 71.271484375 554.609375 52.75390625 573.126953125 52.75390625 595.99609375 c 2
 52.75390625 658.615234375 l 2
 52.75390625 681.484375 71.271484375 700.001953125 94.140625 700.001953125 c 2
 518.177734375 700.001953125 l 2
 534.6015625 700.001953125 549.978515625 692.084960938 559.53125 678.736328125 c 2
 577.198242188 653.969726562 l 2
EndSplineSet
Validated: 524321
EndChar

StartChar: k
Encoding: 107 107 75
Width: 887
Flags: W
LayerCount: 2
Fore
SplineSet
505.047851562 551.37109375 m 2
 485.778320312 551.37109375 468.9296875 538.348632812 464.087890625 519.700195312 c 2
 348.173828125 73.087890625 l 2
 341.990234375 49.2373046875 317.649414062 34.9404296875 293.798828125 41.1240234375 c 2
 239.423828125 55.2578125 l 2
 215.573242188 61.4736328125 201.276367188 85.7822265625 207.459960938 109.6328125 c 2
 244.037109375 250.575195312 l 2
 247.341796875 263.301757812 237.755859375 275.701171875 224.603515625 275.701171875 c 2
 57.32421875 275.701171875 l 2
 30.8564453125 275.701171875 9.361328125 297.163085938 9.361328125 323.663085938 c 2
 9.361328125 373.09765625 l 2
 9.361328125 399.565429688 30.8232421875 421.060546875 57.3232421875 421.060546875 c 2
 272.793945312 421.060546875 l 2
 281.921875 421.060546875 289.9375 427.244140625 292.227539062 436.110351562 c 2
 350.201171875 659.498046875 l 2
 355.893554688 681.451171875 375.686523438 696.762695312 398.359375 696.762695312 c 2
 594.232421875 696.762695312 l 2
 621.713867188 696.762695312 643.994140625 674.482421875 643.994140625 647.000976562 c 2
 643.994140625 601.1328125 l 2
 643.994140625 573.651367188 621.713867188 551.37109375 594.232421875 551.37109375 c 2
 505.047851562 551.37109375 l 2
849.224609375 257.70703125 m 2
 867.708984375 257.70703125 876.37890625 234.904296875 862.540039062 222.602539062 c 2
 647.887695312 31.8984375 l 2
 624.756835938 11.3193359375 594.854492188 -0.033203125 563.904296875 -0.033203125 c 2
 445.928710938 -0.033203125 l 2
 427.444335938 -0.033203125 418.774414062 22.802734375 432.581054688 35.0712890625 c 2
 647.233398438 225.775390625 l 2
 670.396484375 246.354492188 700.298828125 257.70703125 731.249023438 257.70703125 c 2
 849.224609375 257.70703125 l 2
EndSplineSet
Validated: 524321
EndChar

StartChar: l
Encoding: 108 108 76
Width: 389
Flags: W
LayerCount: 2
Fore
SplineSet
271.25 700.001953125 m 2
 299.026367188 700.001953125 321.533203125 677.494140625 321.467773438 649.750976562 c 2
 321.467773438 50.2548828125 l 2
 321.467773438 22.478515625 298.958984375 -0.0302734375 271.182617188 -0.0302734375 c 2
 143.228515625 -0.0302734375 l 2
 103.96875 -0.0302734375 68.6025390625 23.7216796875 53.716796875 60.037109375 c 2
 -10.5380859375 216.912109375 l 2
 -20.025390625 240.108398438 -8.9345703125 266.608398438 14.26171875 276.095703125 c 2
 64.9072265625 296.837890625 l 2
 88.0703125 306.325195312 114.538085938 295.266601562 124.05859375 272.103515625 c 2
 155.43359375 195.776367188 l 2
 159.916015625 184.881835938 176.143554688 188.087890625 176.143554688 199.866210938 c 2
 176.143554688 649.716796875 l 2
 176.143554688 677.493164062 198.65234375 700.001953125 226.428710938 700.001953125 c 2
 271.25 700.001953125 l 2
EndSplineSet
Validated: 524321
EndChar

StartChar: m
Encoding: 109 109 77
Width: 562
Flags: W
LayerCount: 2
Fore
SplineSet
467.965820312 145.393554688 m 2
 492.502929688 145.393554688 512.39453125 125.533203125 512.427734375 100.99609375 c 2
 512.427734375 44.4296875 l 2
 512.427734375 19.892578125 492.536132812 0.0009765625 467.999023438 0.0009765625 c 2
 52.6640625 0.0009765625 l 2
 32.6748046875 0.0009765625 13.9287109375 9.65234375 2.314453125 25.912109375 c 2
 -13.4873046875 48.0283203125 l 2
 -31.3828125 73.056640625 -34.033203125 105.87109375 -20.4560546875 133.451171875 c 2
 228.810546875 639.541992188 l 2
 247.033203125 676.543945312 284.72265625 700.001953125 325.978515625 700.001953125 c 2
 355.422851562 700.001953125 l 2
 387.321289062 700.001953125 413.166992188 674.15625 413.166992188 642.2578125 c 2
 413.166992188 604.568359375 l 2
 413.166992188 567.075195312 391.802734375 538.0234375 366.0546875 536.387695312 c 2
 361.540039062 536.19140625 l 2
 347.864257812 536.35546875 336.0859375 524.904296875 322.3125 499.41796875 c 2
 171.129882812 193.454101562 l 2
 160.235351562 171.3046875 176.364257812 145.393554688 201.032226562 145.393554688 c 2
 467.965820312 145.393554688 l 2
EndSplineSet
Validated: 524321
EndChar

StartChar: n
Encoding: 110 110 78
AltUni2: 0000f1.ffffffff.0
Width: 1029
Flags: W
LayerCount: 2
Fore
SplineSet
976.524414062 54.4091796875 m 2
 985.063476562 28.857421875 966.053710938 2.45703125 939.127929688 2.45703125 c 2
 907.752929688 2.45703125 l 2
 867.642578125 2.45703125 832.046875 28.07421875 819.3203125 66.123046875 c 2
 663.819335938 531.088867188 l 2
 658.78125 546.10546875 644.712890625 556.247070312 628.877929688 556.247070312 c 2
 613.73046875 556.247070312 l 2
 598.942382812 556.247070312 585.561523438 547.4140625 579.803710938 533.771484375 c 2
 369.4375 36.44921875 l 2
 360.11328125 14.365234375 338.455078125 0.03515625 314.506835938 0.03515625 c 2
 176.770507812 0.03515625 l 2
 154.719726562 0.03515625 133.454101562 8.443359375 117.357421875 23.525390625 c 2
 86.734375 52.1845703125 l 2
 69.166015625 68.640625 59.220703125 91.607421875 59.220703125 115.654296875 c 2
 59.220703125 570.18359375 l 2
 59.220703125 589.387695312 65.6005859375 608.1015625 77.345703125 623.314453125 c 2
 111.763671875 667.874023438 l 2
 128.219726562 689.172851562 153.607421875 701.637695312 180.533203125 701.637695312 c 2
 300.733398438 701.637695312 l 2
 322.522460938 701.637695312 340.189453125 683.970703125 340.189453125 662.181640625 c 2
 340.189453125 631.821289062 l 2
 340.189453125 590.075195312 306.360351562 556.24609375 264.614257812 556.24609375 c 2
 215.474609375 556.24609375 l 2
 209.455078125 556.24609375 204.580078125 551.37109375 204.580078125 545.3515625 c 2
 204.580078125 167.803710938 l 2
 204.580078125 155.436523438 214.590820312 145.392578125 226.990234375 145.392578125 c 2
 237.39453125 145.392578125 l 2
 249.663085938 145.392578125 260.787109375 152.75390625 265.563476562 164.07421875 c 2
 480.01953125 671.081054688 l 2
 487.87109375 689.598632812 505.99609375 701.638671875 526.1171875 701.638671875 c 2
 724.051757812 701.638671875 l 2
 745.579101562 701.638671875 764.685546875 687.865234375 771.5234375 667.482421875 c 2
 976.524414062 54.4091796875 l 2
EndSplineSet
Validated: 524321
EndChar

StartChar: o
Encoding: 111 111 79
AltUni2: 0000f8.ffffffff.0 0000f6.ffffffff.0 0000f5.ffffffff.0 0000f4.ffffffff.0 0000f3.ffffffff.0 0000f2.ffffffff.0
Width: 734
Flags: W
LayerCount: 2
Fore
SplineSet
686.709960938 154.2265625 m 2
 696.23046875 124.32421875 688.475585938 91.6396484375 666.522460938 69.228515625 c 2
 618.560546875 20.1865234375 l 2
 605.96484375 7.2958984375 588.723632812 0.033203125 570.697265625 0.033203125 c 2
 109.166992188 0.033203125 l 2
 91.1728515625 0.033203125 73.8984375 7.2958984375 61.302734375 20.1865234375 c 2
 13.3408203125 69.228515625 l 2
 -8.5791015625 91.6396484375 -16.365234375 124.356445312 -6.8447265625 154.2265625 c 2
 152.288085938 654.427734375 l 2
 161.12109375 682.204101562 186.934570312 701.081054688 216.084960938 701.081054688 c 2
 463.748046875 701.081054688 l 2
 492.8984375 701.081054688 518.711914062 682.204101562 527.544921875 654.427734375 c 2
 686.709960938 154.2265625 l 2
503.758789062 145.392578125 m 2
 520.182617188 145.392578125 531.860351562 161.390625 526.854492188 176.99609375 c 2
 415.815429688 525.94921875 l 2
 410.188476562 543.616210938 393.764648438 555.623046875 375.21484375 555.623046875 c 2
 304.61328125 555.623046875 l 2
 286.063476562 555.623046875 269.639648438 543.616210938 264.012695312 525.94921875 c 2
 152.973632812 176.99609375 l 2
 148.000976562 161.357421875 159.680664062 145.391601562 176.104492188 145.391601562 c 2
 244.7109375 145.391601562 l 2
 257.17578125 145.391601562 267.251953125 155.500976562 267.251953125 167.93359375 c 2
 267.251953125 303.576171875 l 2
 267.251953125 329.487304688 288.255859375 350.491210938 314.166992188 350.491210938 c 2
 365.6953125 350.491210938 l 2
 391.606445312 350.491210938 412.610351562 329.487304688 412.610351562 303.576171875 c 2
 412.610351562 167.93359375 l 2
 412.610351562 155.46875 422.719726562 145.392578125 435.15234375 145.392578125 c 2
 503.758789062 145.392578125 l 2
EndSplineSet
Validated: 524321
EndChar

StartChar: p
Encoding: 112 112 80
Width: 745
Flags: W
LayerCount: 2
Fore
SplineSet
623.040039062 700.03515625 m 2
 653.43359375 700.03515625 678.034179688 675.401367188 678.034179688 645.0078125 c 2
 678.034179688 54.966796875 l 2
 678.034179688 24.6064453125 653.3984375 -0.029296875 623.037109375 -0.029296875 c 2
 122.083007812 -0.029296875 l 2
 91.72265625 -0.029296875 67.0869140625 24.5732421875 67.0869140625 54.966796875 c 2
 67.0869140625 644.974609375 l 2
 67.0869140625 675.334960938 91.72265625 699.970703125 122.083984375 699.970703125 c 2
 260.60546875 699.970703125 l 2
 292.14453125 699.970703125 313.3125 687.047851562 343.870117188 663.8515625 c 2
 427.068359375 599.204101562 l 2
 445.814453125 584.645507812 435.508789062 554.612304688 411.7890625 554.612304688 c 2
 267.4765625 554.612304688 l 2
 237.116210938 554.612304688 212.48046875 529.9765625 212.48046875 499.615234375 c 2
 212.48046875 172.614257812 l 2
 212.48046875 157.59765625 224.651367188 145.426757812 239.66796875 145.426757812 c 2
 505.456054688 145.426757812 l 2
 520.47265625 145.426757812 532.643554688 157.59765625 532.643554688 172.614257812 c 2
 532.643554688 645.0390625 l 2
 532.643554688 675.399414062 557.279296875 700.03515625 587.640625 700.03515625 c 2
 623.040039062 700.03515625 l 2
EndSplineSet
Validated: 524321
EndChar

StartChar: q
Encoding: 113 113 81
Width: 488
Flags: W
LayerCount: 2
Fore
SplineSet
484.359375 393.383789062 m 2
 493.421875 372.01953125 477.720703125 348.365234375 454.458984375 348.3984375 c 2
 413.006835938 348.3984375 l 2
 372.111328125 348.3984375 335.141601562 372.870117188 319.208984375 410.559570312 c 2
 266.53515625 535.111328125 l 2
 261.758789062 546.431640625 250.66796875 553.79296875 238.366210938 553.79296875 c 2
 227.961914062 553.79296875 l 2
 215.594726562 553.79296875 205.55078125 543.782226562 205.55078125 531.3828125 c 2
 205.55078125 153.834960938 l 2
 205.55078125 147.815429688 210.42578125 142.940429688 216.4453125 142.940429688 c 2
 265.584960938 142.940429688 l 2
 307.331054688 142.940429688 341.16015625 109.111328125 341.16015625 67.365234375 c 2
 341.16015625 37.0048828125 l 2
 341.16015625 15.2158203125 323.493164062 -2.451171875 301.704101562 -2.451171875 c 2
 181.50390625 -2.451171875 l 2
 154.578125 -2.451171875 129.157226562 10.046875 112.701171875 31.345703125 c 2
 78.283203125 75.9052734375 l 2
 66.5380859375 91.1181640625 60.158203125 109.798828125 60.158203125 129.036132812 c 2
 60.158203125 583.565429688 l 2
 60.158203125 607.612304688 70.103515625 630.579101562 87.671875 647.03515625 c 2
 118.294921875 675.694335938 l 2
 134.423828125 690.776367188 155.657226562 699.184570312 177.741210938 699.184570312 c 2
 315.477539062 699.184570312 l 2
 339.42578125 699.184570312 361.083984375 684.854492188 370.408203125 662.770507812 c 2
 484.359375 393.383789062 l 2
EndSplineSet
Validated: 524321
EndChar

StartChar: r
Encoding: 114 114 82
Width: 439
Flags: W
LayerCount: 2
Fore
SplineSet
418.63671875 700.03515625 m 2
 445.267578125 700.03515625 466.862304688 678.443359375 466.862304688 651.8125 c 2
 466.862304688 568.548828125 l 2
 466.862304688 559.159179688 464.114257812 549.965820312 458.9453125 542.114257812 c 2
 131.6171875 43.0576171875 l 2
 114.015625 16.197265625 84.0146484375 0.0029296875 51.88671875 0.0029296875 c 2
 0.6201171875 0.0029296875 l 2
 -29.9375 0.0029296875 -48.2587890625 33.9296875 -31.5078125 59.4814453125 c 2
 265.262695312 511.94921875 l 2
 277.302734375 530.270507812 264.150390625 554.611328125 242.23046875 554.611328125 c 2
 136.065429688 554.611328125 l 2
 109.434570312 554.611328125 87.841796875 576.204101562 87.841796875 602.834960938 c 2
 87.841796875 651.811523438 l 2
 87.841796875 678.442382812 109.434570312 700.03515625 136.065429688 700.03515625 c 2
 418.63671875 700.03515625 l 2
EndSplineSet
Validated: 524321
EndChar

StartChar: s
Encoding: 115 115 83
Width: 600
Flags: W
LayerCount: 2
Fore
SplineSet
481.272460938 696.73046875 m 2
 509.211914062 696.73046875 531.884765625 674.08984375 531.884765625 646.150390625 c 2
 531.884765625 50.61328125 l 2
 531.884765625 22.673828125 509.245117188 0.0341796875 481.305664062 0.0341796875 c 2
 318.606445312 0.0341796875 l 2
 270.21875 0.0341796875 227.752929688 32.2275390625 214.69921875 78.8154296875 c 2
 52.5234375 657.176757812 l 2
 46.9619140625 677.03515625 61.880859375 696.73046875 82.525390625 696.73046875 c 2
 110.595703125 696.73046875 l 2
 158.983398438 696.73046875 201.482421875 664.537109375 214.536132812 617.94921875 c 2
 342.751953125 160.638671875 l 2
 345.303710938 151.641601562 353.482421875 145.42578125 362.838867188 145.42578125 c 2
 365.65234375 145.42578125 l 2
 377.168945312 145.42578125 386.493164062 154.75 386.493164062 166.266601562 c 2
 386.493164062 646.151367188 l 2
 386.493164062 674.090820312 409.1328125 696.73046875 437.072265625 696.73046875 c 2
 481.272460938 696.73046875 l 2
EndSplineSet
Validated: 524321
EndChar

StartChar: t
Encoding: 116 116 84
Width: 757
Flags: W
LayerCount: 2
Fore
SplineSet
711.3125 176.44140625 m 2
 727.60546875 158.250976562 726.034179688 130.342773438 707.909179688 114.049804688 c 2
 625.071289062 39.9140625 l 2
 596.346679688 14.19921875 559.1484375 -0.0322265625 520.576171875 -0.0322265625 c 2
 236.793945312 -0.0322265625 l 2
 198.25390625 -0.0322265625 161.022460938 14.19921875 132.297851562 39.9140625 c 2
 49.4599609375 114.049804688 l 2
 31.26953125 130.309570312 29.7314453125 158.216796875 45.9912109375 176.407226562 c 2
 84.0400390625 218.938476562 l 2
 100.299804688 237.12890625 128.20703125 238.666992188 146.397460938 222.407226562 c 2
 219.911132812 156.647460938 l 2
 227.9921875 149.384765625 238.494140625 145.393554688 249.356445312 145.393554688 c 2
 280.993164062 145.393554688 l 2
 294.766601562 145.393554688 305.956054688 156.549804688 305.956054688 170.356445312 c 2
 305.956054688 655.834960938 l 2
 305.956054688 680.241210938 325.716796875 700.001953125 350.123046875 700.001953125 c 2
 407.180664062 700.001953125 l 2
 431.586914062 700.001953125 451.34765625 680.241210938 451.34765625 655.834960938 c 2
 451.34765625 170.388671875 l 2
 451.34765625 156.615234375 462.50390625 145.42578125 476.310546875 145.42578125 c 2
 507.947265625 145.42578125 l 2
 518.809570312 145.42578125 529.311523438 149.450195312 537.392578125 156.680664062 c 2
 610.90625 222.440429688 l 2
 629.096679688 238.700195312 657.00390625 237.129882812 673.263671875 218.97265625 c 2
 711.3125 176.44140625 l 2
EndSplineSet
Validated: 524321
EndChar

StartChar: u
Encoding: 117 117 85
AltUni2: 0000fc.ffffffff.0 0000fb.ffffffff.0 0000fa.ffffffff.0 0000f9.ffffffff.0
Width: 745
Flags: W
LayerCount: 2
Fore
SplineSet
623.040039062 700.03515625 m 2
 653.400390625 700.03515625 678.038085938 675.400390625 678.038085938 645.006835938 c 2
 678.038085938 54.9990234375 l 2
 678.038085938 24.638671875 653.40234375 0.0029296875 623.041015625 0.0029296875 c 2
 122.086914062 0.0029296875 l 2
 91.7265625 0.0029296875 67.0908203125 24.60546875 67.0908203125 54.9990234375 c 2
 67.0908203125 645.006835938 l 2
 67.0908203125 675.3671875 91.693359375 700.002929688 122.086914062 700.002929688 c 2
 157.486328125 700.002929688 l 2
 187.846679688 700.002929688 212.482421875 675.3671875 212.482421875 645.006835938 c 2
 212.482421875 172.6796875 l 2
 212.482421875 157.663085938 224.653320312 145.4921875 239.669921875 145.4921875 c 2
 505.458007812 145.4921875 l 2
 520.474609375 145.4921875 532.645507812 157.663085938 532.645507812 172.6796875 c 2
 532.645507812 499.680664062 l 2
 532.645507812 530.041015625 508.009765625 554.676757812 477.6484375 554.676757812 c 2
 333.3359375 554.676757812 l 2
 309.616210938 554.676757812 299.310546875 584.709960938 318.056640625 599.268554688 c 2
 401.254882812 663.916015625 l 2
 431.779296875 687.112304688 452.947265625 700.03515625 484.518554688 700.03515625 c 2
 623.040039062 700.03515625 l 2
EndSplineSet
Validated: 524321
EndChar

StartChar: v
Encoding: 118 118 86
Width: 1004
Flags: W
LayerCount: 2
Fore
SplineSet
920.624023438 698.366210938 m 2
 944.310546875 698.366210938 955.46875 669.151367188 937.76953125 653.381835938 c 2
 739.344726562 476.091796875 l 2
 712.942382812 452.502929688 678.75390625 439.44921875 643.322265625 439.44921875 c 2
 590.354492188 439.44921875 l 2
 578.70703125 439.44921875 569.251953125 429.994140625 569.251953125 418.346679688 c 2
 569.251953125 42.8603515625 l 2
 569.251953125 18.2900390625 549.328125 -1.6337890625 524.7578125 -1.6337890625 c 2
 468.354492188 -1.6337890625 l 2
 443.784179688 -1.6337890625 423.860351562 18.2900390625 423.860351562 42.8603515625 c 2
 423.860351562 418.314453125 l 2
 423.860351562 429.961914062 414.405273438 439.416992188 402.7578125 439.416992188 c 2
 350.1171875 439.416992188 l 2
 314.685546875 439.416992188 280.497070312 452.470703125 254.094726562 476.059570312 c 2
 55.669921875 653.349609375 l 2
 38.0029296875 669.119140625 49.1591796875 698.3671875 72.845703125 698.3671875 c 2
 171.02734375 698.3671875 l 2
 205.01953125 698.3671875 237.801757812 685.836914062 263.124023438 663.1640625 c 2
 328.818359375 604.405273438 l 2
 342.918945312 591.776367188 361.174804688 584.807617188 380.1171875 584.807617188 c 2
 613.352539062 584.807617188 l 2
 632.262695312 584.807617188 650.55078125 591.776367188 664.651367188 604.405273438 c 2
 730.345703125 663.196289062 l 2
 755.66796875 685.8359375 788.450195312 698.366210938 822.442382812 698.366210938 c 2
 920.624023438 698.366210938 l 2
EndSplineSet
Validated: 524321
EndChar

StartChar: w
Encoding: 119 119 87
Width: 795
Flags: W
LayerCount: 2
Fore
SplineSet
264.698242188 554.4140625 m 2
 235.842773438 554.4140625 215.85546875 525.559570312 226.030273438 498.502929688 c 2
 340.701171875 193.389648438 l 2
 351.530273438 164.500976562 379.142578125 145.39453125 409.994140625 145.39453125 c 0
 435.0546875 145.39453125 455.404296875 125.077148438 455.404296875 99.9833984375 c 2
 455.404296875 45.4453125 l 2
 455.404296875 20.384765625 435.086914062 0.03515625 409.993164062 0.03515625 c 2
 329.903320312 0.03515625 l 2
 286.684570312 0.03515625 247.981445312 26.830078125 232.768554688 67.30078125 c 2
 54.3984375 541.852539062 l 2
 51.126953125 550.5546875 49.4580078125 559.748046875 49.4580078125 569.0390625 c 2
 49.4580078125 612.813476562 l 2
 49.4580078125 660.840820312 88.390625 699.805664062 136.451171875 699.805664062 c 2
 366.381835938 699.805664062 l 2
 415.5546875 699.805664062 455.403320312 659.95703125 455.403320312 610.784179688 c 0
 455.403320312 579.670898438 430.178710938 554.4140625 399.032226562 554.4140625 c 2
 264.698242188 554.4140625 l 2
706.928710938 699.806640625 m 2
 739.743164062 699.806640625 766.341796875 673.209960938 766.309570312 640.395507812 c 2
 766.309570312 280.44921875 l 2
 766.309570312 255.813476562 746.3203125 235.82421875 721.684570312 235.82421875 c 2
 660.013671875 236.34765625 l 2
 634.953125 236.543945312 611.004882812 246.587890625 593.272460938 264.3203125 c 2
 523.291992188 334.30078125 l 2
 510.5 347.092773438 503.302734375 364.432617188 503.302734375 382.524414062 c 2
 503.302734375 398.817382812 l 2
 503.302734375 426.102539062 525.418945312 448.21875 552.704101562 448.21875 c 0
 607.176757812 448.21875 616.173828125 445.208984375 620.91796875 492.451171875 c 1
 620.91796875 508.220703125 l 2
 621.310546875 531.383789062 608.485351562 537.436523438 594.581054688 545.811523438 c 2
 585.125976562 552.223632812 l 2
 570.73046875 561.97265625 562.125976562 578.200195312 562.125976562 595.572265625 c 2
 562.125976562 640.393554688 l 2
 562.125976562 673.208007812 588.724609375 699.806640625 621.5390625 699.806640625 c 2
 706.928710938 699.806640625 l 2
EndSplineSet
Validated: 524321
EndChar

StartChar: x
Encoding: 120 120 88
Width: 665
Flags: W
LayerCount: 2
Fore
SplineSet
611.193359375 61.9990234375 m 2
 619.110351562 30.525390625 595.293945312 -0 562.9375 0.0322265625 c 2
 516.0546875 0.0322265625 l 2
 493.284179688 0.0322265625 473.392578125 15.474609375 467.765625 37.525390625 c 2
 352.178710938 489.764648438 l 2
 350.01953125 498.107421875 343.149414062 502.393554688 336.115234375 502.688476562 c 0
 329.081054688 502.426757812 322.177734375 498.140625 320.05078125 489.765625 c 2
 204.463867188 37.5263671875 l 2
 198.803710938 15.4755859375 178.9453125 0.033203125 156.174804688 0.033203125 c 2
 109.291992188 0.033203125 l 2
 76.8701171875 0.033203125 53.052734375 30.525390625 60.9697265625 61.9990234375 c 2
 210.974609375 659.041015625 l 2
 216.536132812 681.190429688 236.459960938 696.73046875 259.295898438 696.73046875 c 2
 412.8671875 696.73046875 l 2
 435.703125 696.73046875 455.626953125 681.190429688 461.188476562 659.041015625 c 2
 611.193359375 61.9990234375 l 2
EndSplineSet
Validated: 524321
EndChar

StartChar: y
Encoding: 121 121 89
AltUni2: 0000ff.ffffffff.0 0000fd.ffffffff.0
Width: 604
Flags: W
LayerCount: 2
Fore
SplineSet
550.41796875 59.4794921875 m 2
 567.168945312 33.927734375 548.848632812 0 518.291015625 0.033203125 c 2
 467.024414062 0.033203125 l 2
 434.896484375 0.033203125 404.928710938 16.2275390625 387.294921875 43.087890625 c 2
 59.966796875 542.14453125 l 2
 54.830078125 549.99609375 52.08203125 559.189453125 52.08203125 568.579101562 c 2
 52.08203125 651.809570312 l 2
 52.08203125 678.440429688 73.6748046875 700.033203125 100.305664062 700.033203125 c 2
 382.844726562 700.033203125 l 2
 409.475585938 700.033203125 431.068359375 678.440429688 431.068359375 651.809570312 c 2
 431.068359375 602.833007812 l 2
 431.068359375 576.202148438 409.475585938 554.609375 382.844726562 554.609375 c 2
 276.6796875 554.609375 l 2
 254.759765625 554.609375 241.640625 530.268554688 253.647460938 511.947265625 c 2
 550.41796875 59.4794921875 l 2
EndSplineSet
Validated: 524321
EndChar

StartChar: z
Encoding: 122 122 90
Width: 861
Flags: W
LayerCount: 2
Fore
SplineSet
761.61328125 699.87109375 m 2
 793.838867188 699.87109375 819.982421875 673.763671875 820.014648438 641.504882812 c 2
 820.014648438 237.686523438 l 2
 820.014648438 205.395507812 806.2734375 174.609375 782.194335938 153.08203125 c 2
 644.033203125 29.4462890625 l 2
 622.930664062 10.5693359375 595.612304688 0.1328125 567.3125 0.1328125 c 2
 251.533203125 0.1328125 l 2
 223.233398438 0.1328125 195.915039062 10.5693359375 174.8125 29.4462890625 c 2
 -10.2646484375 195.056640625 l 2
 -32.6103515625 215.045898438 -18.4765625 252.081054688 11.5244140625 252.081054688 c 2
 51.3076171875 252.081054688 l 2
 111.080078125 252.081054688 168.7265625 230.030273438 213.286132812 190.181640625 c 2
 246.264648438 160.671875 l 2
 257.126953125 150.922851562 271.227539062 145.557617188 285.819335938 145.557617188 c 2
 518.432617188 145.557617188 l 2
 542.380859375 145.557617188 565.478515625 154.390625 583.341796875 170.356445312 c 2
 655.088867188 234.545898438 l 2
 667.456054688 245.63671875 674.522460938 261.438476562 674.522460938 278.05859375 c 2
 674.522460938 641.504882812 l 2
 674.522460938 673.73046875 700.663085938 699.87109375 732.888671875 699.87109375 c 2
 761.61328125 699.87109375 l 2
262.396484375 287.938476562 m 2
 234.555664062 312.999023438 l 2
 208.676757812 336.358398438 215.645507812 378.627929688 247.642578125 392.434570312 c 2
 512.7109375 506.712890625 l 2
 539.702148438 518.327148438 569.80078125 498.534179688 569.80078125 469.155273438 c 2
 569.80078125 463.953125 l 2
 569.80078125 408.6953125 536.953125 358.737304688 486.209960938 336.8828125 c 2
 342.126953125 274.787109375 l 2
 315.266601562 263.205078125 284.120117188 268.341796875 262.396484375 287.938476562 c 2
EndSplineSet
Validated: 524321
EndChar

StartChar: braceleft
Encoding: 123 123 91
Width: 386
Flags: W
LayerCount: 2
Fore
SplineSet
260.98828125 703.337890625 m 0
 302.603515625 703.337890625 336.333984375 669.606445312 336.333984375 627.991210938 c 2
 336.333984375 75.345703125 l 2
 336.333984375 33.73046875 302.603515625 0 260.98828125 0 c 0
 219.373046875 -0 185.642578125 33.73046875 185.642578125 75.345703125 c 2
 185.642578125 113.624023438 l 2
 185.642578125 127.430664062 174.453125 138.65234375 160.614257812 138.65234375 c 2
 127.374023438 138.65234375 l 2
 84.646484375 138.65234375 50 173.266601562 50 215.994140625 c 0
 50 258.721679688 84.646484375 293.368164062 127.374023438 293.368164062 c 0
 159.567382812 293.368164062 185.642578125 319.475585938 185.642578125 351.635742188 c 0
 185.642578125 383.829101562 159.53515625 409.904296875 127.375 409.904296875 c 0
 84.6474609375 409.9375 50.0009765625 444.583984375 50.0009765625 487.311523438 c 0
 50.0009765625 530.0390625 84.6474609375 564.685546875 127.375 564.685546875 c 2
 160.647460938 564.685546875 l 2
 174.454101562 564.685546875 185.67578125 575.875 185.67578125 589.713867188 c 2
 185.67578125 627.9921875 l 2
 185.642578125 669.607421875 219.373046875 703.337890625 260.98828125 703.337890625 c 0
EndSplineSet
Validated: 524321
EndChar

StartChar: braceright
Encoding: 125 125 92
Width: 386
Flags: W
LayerCount: 2
Fore
SplineSet
258.9921875 409.936523438 m 2
 226.798828125 409.936523438 200.69140625 383.829101562 200.69140625 351.668945312 c 0
 200.69140625 319.475585938 226.798828125 293.400390625 258.958984375 293.400390625 c 2
 258.9921875 293.400390625 l 2
 301.719726562 293.400390625 336.366210938 258.75390625 336.366210938 216.026367188 c 0
 336.366210938 173.298828125 301.719726562 138.65234375 258.9921875 138.65234375 c 2
 225.719726562 138.65234375 l 2
 211.913085938 138.65234375 200.69140625 127.462890625 200.69140625 113.624023438 c 2
 200.69140625 75.345703125 l 2
 200.69140625 33.73046875 166.9609375 0 125.345703125 0 c 0
 83.73046875 -0 50 33.73046875 50 75.345703125 c 2
 50 627.991210938 l 2
 50 669.606445312 83.73046875 703.336914062 125.345703125 703.336914062 c 0
 166.9609375 703.336914062 200.69140625 669.606445312 200.69140625 627.991210938 c 2
 200.69140625 589.712890625 l 2
 200.69140625 575.90625 211.880859375 564.684570312 225.719726562 564.684570312 c 2
 259.025390625 564.684570312 l 2
 301.752929688 564.684570312 336.399414062 530.038085938 336.399414062 487.310546875 c 0
 336.399414062 444.583007812 301.752929688 409.936523438 259.025390625 409.936523438 c 2
 258.9921875 409.936523438 l 2
EndSplineSet
Validated: 524289
EndChar

StartChar: quoteright
Encoding: 8217 8217 95
Width: 328
Flags: W
LayerCount: 2
Fore
SplineSet
264.685546875 819.459960938 m 0
 289.844726562 800.6484375 276.561523438 760.634765625 245.12109375 760.634765625 c 2
 244.43359375 760.634765625 l 2
 226.407226562 760.634765625 211.783203125 746.010742188 211.783203125 727.984375 c 2
 211.783203125 410.602539062 l 2
 211.783203125 375.890625 170.200195312 358.02734375 145.041015625 381.943359375 c 0
 84.3525390625 439.58984375 50 519.646484375 50 603.334960938 c 2
 50 732.302734375 l 2
 50 784.02734375 91.91015625 825.9375 143.634765625 825.9375 c 2
 245.12109375 825.9375 l 2
 252.1875 825.9375 259.025390625 823.647460938 264.685546875 819.459960938 c 0
EndSplineSet
Validated: 524321
EndChar

StartChar: quotedblright
Encoding: 8221 8221 96
Width: 611
Flags: W
LayerCount: 2
Fore
SplineSet
489.120117188 737.701171875 m 0
 553.146484375 737.701171875 585.338867188 660.42578125 540.255859375 614.982421875 c 2
 406.70703125 480.255859375 l 2
 346.901367188 419.926757812 265.502929688 386 180.538085938 386 c 2
 121.975585938 386 l 2
 82.2578125 386.032226562 49.9990234375 418.2578125 49.9990234375 458.041015625 c 2
 49.9990234375 657.31640625 l 2
 49.9990234375 701.712890625 85.9873046875 737.701171875 130.383789062 737.701171875 c 0
 174.780273438 737.701171875 210.768554688 701.712890625 210.768554688 657.31640625 c 2
 210.768554688 548.174804688 l 2
 210.768554688 525.208007812 238.610351562 513.790039062 254.739257812 530.180664062 c 2
 437.788085938 716.206054688 l 2
 451.333007812 729.947265625 469.817382812 737.701171875 489.120117188 737.701171875 c 0
EndSplineSet
Validated: 524321
EndChar

StartChar: quoteleft
Encoding: 8216 8216 97
Width: 328
Flags: W
HStem: 760.635 65.3027<38.963 69.5645 70.252 100.92>
VStem: 102.902 161.783<489.976 603.335 727.984 757.94>
LayerCount: 2
Fore
SplineSet
50 819.459960938 m 0
 24.8408203125 800.6484375 38.1240234375 760.634765625 69.564453125 760.634765625 c 2
 70.251953125 760.634765625 l 2
 88.2783203125 760.634765625 102.90234375 746.010742188 102.90234375 727.984375 c 2
 102.90234375 410.602539062 l 2
 102.90234375 375.890625 144.485351562 358.02734375 169.64453125 381.943359375 c 0
 230.333007812 439.58984375 264.685546875 519.646484375 264.685546875 603.334960938 c 2
 264.685546875 732.302734375 l 2
 264.685546875 784.02734375 222.775390625 825.9375 171.05078125 825.9375 c 2
 69.564453125 825.9375 l 2
 62.498046875 825.9375 55.66015625 823.647460938 50 819.459960938 c 0
EndSplineSet
Validated: 524329
EndChar

StartChar: quotedblleft
Encoding: 8220 8220 98
Width: 611
Flags: W
HStem: 386 351.701<405.822 513.92>
VStem: 379.486 160.77<522.883 548.175 657.316 711.366>
LayerCount: 2
Fore
SplineSet
101.134765625 737.701171875 m 0
 37.1083984375 737.701171875 4.916015625 660.42578125 49.9990234375 614.982421875 c 2
 183.547851562 480.255859375 l 2
 243.353515625 419.926757812 324.751953125 386 409.716796875 386 c 2
 468.279296875 386 l 2
 507.997070312 386.032226562 540.255859375 418.2578125 540.255859375 458.041015625 c 2
 540.255859375 657.31640625 l 2
 540.255859375 701.712890625 504.267578125 737.701171875 459.87109375 737.701171875 c 0
 415.474609375 737.701171875 379.486328125 701.712890625 379.486328125 657.31640625 c 2
 379.486328125 548.174804688 l 2
 379.486328125 525.208007812 351.64453125 513.790039062 335.515625 530.180664062 c 2
 152.466796875 716.206054688 l 2
 138.921875 729.947265625 120.4375 737.701171875 101.134765625 737.701171875 c 0
EndSplineSet
Validated: 524329
EndChar

StartChar: quotesingle
Encoding: 39 39 99
Width: 328
Flags: W
HStem: 760.635 65.3027<213.765 275.723>
VStem: 50 161.783<489.976 757.94>
LayerCount: 2
Fore
SplineSet
264.685546875 819.459960938 m 4
 289.844726562 800.6484375 276.561523438 760.634765625 245.12109375 760.634765625 c 6
 244.43359375 760.634765625 l 6
 226.407226562 760.634765625 211.783203125 746.010742188 211.783203125 727.984375 c 6
 211.783203125 410.602539062 l 6
 211.783203125 375.890625 170.200195312 358.02734375 145.041015625 381.943359375 c 4
 84.3525390625 439.58984375 50 519.646484375 50 603.334960938 c 6
 50 732.302734375 l 6
 50 784.02734375 91.91015625 825.9375 143.634765625 825.9375 c 6
 245.12109375 825.9375 l 6
 252.1875 825.9375 259.025390625 823.647460938 264.685546875 819.459960938 c 4
EndSplineSet
Validated: 524321
EndChar

StartChar: quotedbl
Encoding: 34 34 100
Width: 611
Flags: W
HStem: 386 351.701<405.822 513.92>
VStem: 379.486 160.77<522.883 548.175 657.316 711.366>
LayerCount: 2
Fore
SplineSet
101.134765625 737.701171875 m 4
 37.1083984375 737.701171875 4.916015625 660.42578125 49.9990234375 614.982421875 c 6
 183.547851562 480.255859375 l 6
 243.353515625 419.926757812 324.751953125 386 409.716796875 386 c 6
 468.279296875 386 l 6
 507.997070312 386.032226562 540.255859375 418.2578125 540.255859375 458.041015625 c 6
 540.255859375 657.31640625 l 6
 540.255859375 701.712890625 504.267578125 737.701171875 459.87109375 737.701171875 c 4
 415.474609375 737.701171875 379.486328125 701.712890625 379.486328125 657.31640625 c 6
 379.486328125 548.174804688 l 6
 379.486328125 525.208007812 351.64453125 513.790039062 335.515625 530.180664062 c 6
 152.466796875 716.206054688 l 6
 138.921875 729.947265625 120.4375 737.701171875 101.134765625 737.701171875 c 4
EndSplineSet
Validated: 524329
EndChar

StartChar: backslash
Encoding: 92 92 101
Width: 381
Flags: W
VStem: 49.999 160.77<432.728 556.113 622.985 677.035> 170.526 160.835<26.3461 80.3848 147.256 270.671>
LayerCount: 2
Fore
SplineSet
130.383789062 703.370117188 m 0x80
 85.9873046875 703.370117188 49.9990234375 667.381835938 49.9990234375 622.985351562 c 2
 49.9990234375 556.11328125 l 2x80
 49.9990234375 471.377929688 79.4111328125 389.259765625 133.197265625 323.793945312 c 0
 157.341796875 294.415039062 170.526367188 257.576171875 170.526367188 219.52734375 c 2
 170.526367188 80.384765625 l 2
 170.526367188 35.98828125 206.514648438 0 250.911132812 0 c 2
 250.9765625 0 l 2
 295.373046875 0.0322265625 331.361328125 35.9873046875 331.361328125 80.3837890625 c 2
 331.361328125 147.255859375 l 2x40
 331.361328125 232.024414062 301.94921875 314.142578125 248.130859375 379.608398438 c 0
 223.986328125 408.987304688 210.768554688 445.858398438 210.768554688 483.875 c 2
 210.768554688 622.985351562 l 2
 210.768554688 667.381835938 174.780273438 703.370117188 130.383789062 703.370117188 c 0x80
EndSplineSet
Validated: 524297
EndChar

StartChar: grave
Encoding: 96 96 102
Width: 328
Flags: W
HStem: 760.635 65.3027<52.1348 82.7363 83.4238 114.092>
VStem: 116.074 161.783<489.976 603.335 727.984 757.94>
LayerCount: 2
Fore
SplineSet
63.171875 819.459960938 m 4
 38.0126953125 800.6484375 51.2958984375 760.634765625 82.736328125 760.634765625 c 6
 83.423828125 760.634765625 l 6
 101.450195312 760.634765625 116.07421875 746.010742188 116.07421875 727.984375 c 6
 116.07421875 410.602539062 l 6
 116.07421875 375.890625 157.657226562 358.02734375 182.81640625 381.943359375 c 4
 243.504882812 439.58984375 277.857421875 519.646484375 277.857421875 603.334960938 c 6
 277.857421875 732.302734375 l 6
 277.857421875 784.02734375 235.947265625 825.9375 184.22265625 825.9375 c 6
 82.736328125 825.9375 l 6
 75.669921875 825.9375 68.83203125 823.647460938 63.171875 819.459960938 c 4
EndSplineSet
Validated: 524329
EndChar
